<svg xmlns="http://www.w3.org/2000/svg" xmlns:xlink="http://www.w3.org/1999/xlink" width="1000" zoomAndPan="magnify" viewBox="0 0 750 749.999995" height="1000" preserveAspectRatio="xMidYMid meet" version="1.0"><defs><g/><clipPath id="id1"><path d="M 93.167969 147.710938 L 596.417969 147.710938 L 596.417969 650.960938 L 93.167969 650.960938 Z M 93.167969 147.710938 " clip-rule="nonzero"/></clipPath><clipPath id="id2"><path d="M 281.59375 77.753906 L 421.84375 77.753906 L 421.84375 218.003906 L 281.59375 218.003906 Z M 281.59375 77.753906 " clip-rule="nonzero"/></clipPath><clipPath id="id3"><path d="M 69.46875 458.03125 L 209.71875 458.03125 L 209.71875 598.28125 L 69.46875 598.28125 Z M 69.46875 458.03125 " clip-rule="nonzero"/></clipPath><clipPath id="id4"><path d="M 499.964844 458.03125 L 640.214844 458.03125 L 640.214844 598.28125 L 499.964844 598.28125 Z M 499.964844 458.03125 " clip-rule="nonzero"/></clipPath><clipPath id="id5"><path d="M 525 475.617188 L 615 475.617188 L 615 580.617188 L 525 580.617188 Z M 525 475.617188 " clip-rule="nonzero"/></clipPath><clipPath id="id6"><path d="M 564 488 L 615 488 L 615 580.617188 L 564 580.617188 Z M 564 488 " clip-rule="nonzero"/></clipPath><clipPath id="id7"><path d="M 88 268 L 132 268 L 132 319 L 88 319 Z M 88 268 " clip-rule="nonzero"/></clipPath><clipPath id="id8"><path d="M 110.339844 255.941406 L 152.84375 281.3125 L 130.933594 318.019531 L 88.429688 292.652344 Z M 110.339844 255.941406 " clip-rule="nonzero"/></clipPath><clipPath id="id9"><path d="M 110.339844 255.941406 L 152.84375 281.3125 L 130.933594 318.019531 L 88.429688 292.652344 Z M 110.339844 255.941406 " clip-rule="nonzero"/></clipPath><clipPath id="id10"><path d="M 540 268 L 584 268 L 584 319 L 540 319 Z M 540 268 " clip-rule="nonzero"/></clipPath><clipPath id="id11"><path d="M 561.957031 255.941406 L 604.460938 281.3125 L 582.550781 318.019531 L 540.046875 292.652344 Z M 561.957031 255.941406 " clip-rule="nonzero"/></clipPath><clipPath id="id12"><path d="M 561.957031 255.941406 L 604.460938 281.3125 L 582.550781 318.019531 L 540.046875 292.652344 Z M 561.957031 255.941406 " clip-rule="nonzero"/></clipPath><clipPath id="id13"><path d="M 326 625 L 370 625 L 370 675 L 326 675 Z M 326 625 " clip-rule="nonzero"/></clipPath><clipPath id="id14"><path d="M 348.144531 612.605469 L 390.652344 637.972656 L 368.742188 674.683594 L 326.234375 649.3125 Z M 348.144531 612.605469 " clip-rule="nonzero"/></clipPath><clipPath id="id15"><path d="M 348.144531 612.605469 L 390.652344 637.972656 L 368.742188 674.683594 L 326.234375 649.3125 Z M 348.144531 612.605469 " clip-rule="nonzero"/></clipPath><clipPath id="id16"><path d="M 79.152344 475.617188 L 152 475.617188 L 152 564 L 79.152344 564 Z M 79.152344 475.617188 " clip-rule="nonzero"/></clipPath><clipPath id="id17"><path d="M 135 521 L 187.902344 521 L 187.902344 576.117188 L 135 576.117188 Z M 135 521 " clip-rule="nonzero"/></clipPath><clipPath id="id18"><path d="M 154.488281 541.332031 L 170.667969 541.332031 L 170.667969 557.515625 L 154.488281 557.515625 Z M 154.488281 541.332031 " clip-rule="nonzero"/></clipPath></defs><g clip-path="url(#id1)"><path fill="#333333" d="M 344.792969 650.960938 C 206.089844 650.960938 93.167969 538.039062 93.167969 399.335938 C 93.167969 260.632812 206.089844 147.710938 344.792969 147.710938 C 483.496094 147.710938 596.417969 260.632812 596.417969 399.335938 C 596.417969 538.039062 483.496094 650.960938 344.792969 650.960938 Z M 344.792969 151.429688 C 208.070312 151.429688 96.886719 262.613281 96.886719 399.335938 C 96.886719 536.054688 208.070312 647.242188 344.792969 647.242188 C 481.511719 647.242188 592.699219 536.054688 592.699219 399.335938 C 592.699219 262.613281 481.511719 151.429688 344.792969 151.429688 Z M 344.792969 151.429688 " fill-opacity="1" fill-rule="nonzero"/></g><g clip-path="url(#id2)"><path fill="#ffffff" d="M 351.71875 77.753906 C 312.988281 77.753906 281.59375 109.152344 281.59375 147.878906 C 281.59375 186.609375 312.988281 218.003906 351.71875 218.003906 C 390.449219 218.003906 421.84375 186.609375 421.84375 147.878906 C 421.84375 109.152344 390.449219 77.753906 351.71875 77.753906 " fill-opacity="1" fill-rule="nonzero"/></g><g clip-path="url(#id3)"><path fill="#ffffff" d="M 139.59375 458.03125 C 100.863281 458.03125 69.46875 489.429688 69.46875 528.15625 C 69.46875 566.886719 100.863281 598.28125 139.59375 598.28125 C 178.324219 598.28125 209.71875 566.886719 209.71875 528.15625 C 209.71875 489.429688 178.324219 458.03125 139.59375 458.03125 " fill-opacity="1" fill-rule="nonzero"/></g><g clip-path="url(#id4)"><path fill="#ffffff" d="M 570.089844 458.03125 C 531.359375 458.03125 499.964844 489.429688 499.964844 528.15625 C 499.964844 566.886719 531.359375 598.28125 570.089844 598.28125 C 608.816406 598.28125 640.214844 566.886719 640.214844 528.15625 C 640.214844 489.429688 608.816406 458.03125 570.089844 458.03125 " fill-opacity="1" fill-rule="nonzero"/></g><g clip-path="url(#id5)"><path fill="#64539c" d="M 568.765625 476.117188 C 561.097656 483.082031 545.714844 488.046875 527.589844 488.800781 C 526.566406 488.84375 525.753906 489.6875 525.753906 490.714844 L 525.753906 526.890625 C 525.753906 545.070312 535.527344 561.847656 551.339844 570.8125 L 567.398438 579.917969 C 569.042969 580.851562 571.058594 580.851562 572.703125 579.917969 L 588.761719 570.8125 C 604.574219 561.847656 614.347656 545.070312 614.347656 526.890625 L 614.347656 490.714844 C 614.347656 489.6875 613.535156 488.84375 612.511719 488.800781 C 594.386719 488.046875 579.007812 483.078125 571.335938 476.117188 C 570.605469 475.453125 569.496094 475.453125 568.765625 476.117188 Z M 568.765625 476.117188 " fill-opacity="1" fill-rule="nonzero"/></g><path fill="#64539c" d="M 555.503906 563.832031 C 542.207031 556.289062 533.941406 542.105469 533.941406 526.8125 L 533.941406 498.199219 C 533.941406 497.300781 534.617188 496.546875 535.507812 496.441406 C 548.90625 494.90625 560.59375 491.277344 569.128906 486.042969 C 569.695312 485.695312 570.40625 485.695312 570.972656 486.042969 C 579.507812 491.277344 591.195312 494.90625 604.59375 496.441406 C 605.484375 496.546875 606.160156 497.300781 606.160156 498.199219 L 606.160156 526.8125 C 606.160156 542.105469 597.898438 556.289062 584.597656 563.832031 L 570.925781 571.582031 C 570.382812 571.890625 569.71875 571.890625 569.179688 571.582031 Z M 555.503906 563.832031 " fill-opacity="1" fill-rule="nonzero"/><path fill="#ffbd59" d="M 570.050781 497.03125 C 561.597656 497.03125 554.71875 503.90625 554.71875 512.359375 L 554.71875 522.386719 L 560.742188 522.386719 C 560.742188 520.945312 560.742188 513.804688 560.742188 512.359375 C 560.742188 507.226562 564.917969 503.050781 570.050781 503.050781 C 575.183594 503.050781 579.359375 507.226562 579.359375 512.359375 L 579.359375 522.386719 L 585.382812 522.386719 C 585.382812 520.945312 585.382812 513.804688 585.382812 512.359375 C 585.382812 503.90625 578.503906 497.03125 570.050781 497.03125 Z M 570.050781 497.03125 " fill-opacity="1" fill-rule="nonzero"/><path fill="#ffbd59" d="M 587.5 549.953125 L 552.601562 549.953125 C 550.484375 549.953125 548.769531 548.238281 548.769531 546.121094 L 548.769531 521.117188 C 548.769531 519.003906 550.484375 517.289062 552.601562 517.289062 L 587.5 517.289062 C 589.617188 517.289062 591.332031 519.003906 591.332031 521.117188 L 591.332031 546.121094 C 591.332031 548.238281 589.617188 549.953125 587.5 549.953125 Z M 587.5 549.953125 " fill-opacity="1" fill-rule="nonzero"/><path fill="#64539c" d="M 575.578125 529.585938 C 575.578125 526.535156 573.105469 524.058594 570.050781 524.058594 C 567 524.058594 564.523438 526.535156 564.523438 529.585938 C 564.523438 531.628906 565.632812 533.410156 567.277344 534.367188 L 567.277344 540.742188 C 567.277344 542.273438 568.519531 543.515625 570.050781 543.515625 C 571.582031 543.515625 572.824219 542.273438 572.824219 540.742188 L 572.824219 534.367188 C 574.46875 533.410156 575.578125 531.628906 575.578125 529.585938 Z M 575.578125 529.585938 " fill-opacity="1" fill-rule="nonzero"/><path fill="#ffbd59" d="M 587.5 517.289062 L 581.511719 517.289062 C 583.628906 517.289062 585.34375 519.003906 585.34375 521.117188 L 585.34375 546.121094 C 585.34375 548.238281 583.628906 549.953125 581.511719 549.953125 L 587.5 549.953125 C 589.617188 549.953125 591.332031 548.238281 591.332031 546.121094 L 591.332031 521.117188 C 591.332031 519.003906 589.617188 517.289062 587.5 517.289062 Z M 587.5 517.289062 " fill-opacity="1" fill-rule="nonzero"/><g clip-path="url(#id6)"><path fill="#64539c" d="M 612.511719 488.800781 C 610.210938 488.707031 607.953125 488.542969 605.753906 488.316406 C 606.035156 488.648438 606.207031 489.082031 606.207031 489.550781 L 606.207031 525.726562 C 606.207031 543.90625 596.4375 560.683594 580.621094 569.652344 L 564.957031 578.535156 L 567.398438 579.917969 C 569.042969 580.851562 571.058594 580.851562 572.703125 579.917969 L 588.761719 570.8125 C 604.574219 561.847656 614.347656 545.070312 614.347656 526.890625 L 614.347656 490.714844 C 614.347656 489.6875 613.535156 488.84375 612.511719 488.800781 Z M 612.511719 488.800781 " fill-opacity="1" fill-rule="nonzero"/></g><g clip-path="url(#id7)"><g clip-path="url(#id8)"><g clip-path="url(#id9)"><path fill="#333333" d="M 88.433594 292.648438 L 131.589844 268.632812 L 130.9375 318.015625 Z M 88.433594 292.648438 " fill-opacity="1" fill-rule="nonzero"/></g></g></g><g clip-path="url(#id10)"><g clip-path="url(#id11)"><g clip-path="url(#id12)"><path fill="#333333" d="M 540.046875 292.648438 L 583.207031 268.632812 L 582.550781 318.015625 Z M 540.046875 292.648438 " fill-opacity="1" fill-rule="nonzero"/></g></g></g><g clip-path="url(#id13)"><g clip-path="url(#id14)"><g clip-path="url(#id15)"><path fill="#333333" d="M 326.238281 649.308594 L 369.394531 625.292969 L 368.742188 674.675781 Z M 326.238281 649.308594 " fill-opacity="1" fill-rule="nonzero"/></g></g></g><path fill="#64539c" d="M 395.90625 159.523438 C 395.917969 159.496094 395.921875 159.46875 395.929688 159.441406 C 396.402344 157.664062 397.402344 156.070312 398.828125 154.910156 L 399.664062 154.222656 C 403.886719 150.773438 403.886719 144.324219 399.664062 140.875 L 398.828125 140.1875 C 397.402344 139.027344 396.402344 137.433594 395.929688 135.65625 C 395.921875 135.628906 395.917969 135.601562 395.90625 135.574219 C 395.433594 133.796875 395.5 131.921875 396.152344 130.203125 L 396.535156 129.191406 C 398.46875 124.09375 395.242188 118.503906 389.859375 117.628906 L 388.769531 117.453125 C 386.953125 117.15625 385.296875 116.277344 383.996094 114.980469 C 383.984375 114.964844 383.972656 114.953125 383.957031 114.941406 C 382.660156 113.640625 381.78125 111.980469 381.484375 110.167969 L 381.308594 109.078125 C 380.433594 103.695312 374.84375 100.46875 369.746094 102.402344 L 368.734375 102.785156 C 367.015625 103.4375 365.140625 103.507812 363.363281 103.03125 C 363.335938 103.023438 363.308594 103.015625 363.28125 103.007812 C 361.503906 102.535156 359.910156 101.535156 358.75 100.109375 L 358.0625 99.273438 C 354.613281 95.050781 348.164062 95.050781 344.714844 99.273438 L 344.027344 100.109375 C 342.867188 101.535156 341.273438 102.535156 339.496094 103.007812 C 339.46875 103.015625 339.441406 103.023438 339.414062 103.03125 C 337.636719 103.507812 335.761719 103.4375 334.042969 102.785156 L 333.03125 102.402344 C 327.933594 100.46875 322.34375 103.695312 321.46875 109.078125 L 321.292969 110.167969 C 320.996094 111.980469 320.117188 113.640625 318.820312 114.941406 C 318.804688 114.953125 318.792969 114.964844 318.78125 114.980469 C 317.480469 116.277344 315.820312 117.15625 314.007812 117.453125 L 312.917969 117.628906 C 307.535156 118.503906 304.308594 124.09375 306.242188 129.191406 L 306.625 130.203125 C 307.277344 131.921875 307.34375 133.796875 306.871094 135.574219 C 306.859375 135.601562 306.855469 135.628906 306.847656 135.65625 C 306.375 137.433594 305.375 139.027344 303.949219 140.1875 L 303.109375 140.875 C 298.890625 144.324219 298.890625 150.773438 303.109375 154.222656 L 303.949219 154.910156 C 305.375 156.070312 306.375 157.664062 306.847656 159.441406 C 306.855469 159.46875 306.859375 159.496094 306.871094 159.523438 C 307.34375 161.300781 307.277344 163.175781 306.625 164.894531 L 306.242188 165.90625 C 304.308594 171.003906 307.535156 176.59375 312.917969 177.46875 L 314.007812 177.644531 C 315.820312 177.941406 317.480469 178.820312 318.78125 180.117188 C 318.792969 180.132812 318.804688 180.144531 318.820312 180.15625 C 320.117188 181.457031 320.996094 183.113281 321.292969 184.929688 L 321.46875 186.019531 C 322.34375 191.402344 327.933594 194.628906 333.03125 192.695312 L 334.042969 192.3125 C 335.761719 191.660156 337.636719 191.59375 339.414062 192.066406 C 339.441406 192.078125 339.46875 192.082031 339.496094 192.09375 C 341.273438 192.566406 342.867188 193.5625 344.027344 194.988281 L 344.714844 195.824219 C 348.164062 200.046875 354.613281 200.046875 358.0625 195.824219 L 358.75 194.988281 C 359.910156 193.5625 361.503906 192.566406 363.28125 192.09375 C 363.308594 192.082031 363.335938 192.078125 363.363281 192.066406 C 365.140625 191.59375 367.015625 191.660156 368.734375 192.3125 L 369.746094 192.695312 C 374.84375 194.628906 380.433594 191.402344 381.308594 186.019531 L 381.484375 184.929688 C 381.78125 183.113281 382.660156 181.457031 383.957031 180.15625 C 383.972656 180.144531 383.984375 180.132812 383.996094 180.117188 C 385.296875 178.820312 386.953125 177.941406 388.769531 177.644531 L 389.859375 177.46875 C 395.242188 176.59375 398.46875 171.003906 396.535156 165.90625 L 396.152344 164.894531 C 395.5 163.175781 395.433594 161.300781 395.90625 159.523438 " fill-opacity="1" fill-rule="nonzero"/><path fill="#ffbd59" d="M 387.898438 147.550781 C 387.898438 167.714844 371.554688 184.058594 351.386719 184.058594 C 331.222656 184.058594 314.878906 167.714844 314.878906 147.550781 C 314.878906 127.382812 331.222656 111.039062 351.386719 111.039062 C 371.554688 111.039062 387.898438 127.382812 387.898438 147.550781 " fill-opacity="1" fill-rule="nonzero"/><path fill="#64539c" d="M 365.527344 129.339844 L 345.3125 149.554688 C 345.125 149.742188 344.824219 149.742188 344.640625 149.554688 L 333.863281 138.777344 C 333.679688 138.59375 333.378906 138.59375 333.191406 138.777344 L 324.566406 147.402344 C 324.382812 147.589844 324.382812 147.890625 324.566406 148.074219 L 344.640625 168.148438 C 344.824219 168.335938 345.125 168.335938 345.3125 168.148438 L 374.824219 138.636719 C 375.011719 138.449219 375.011719 138.148438 374.824219 137.964844 L 366.199219 129.339844 C 366.015625 129.15625 365.710938 129.15625 365.527344 129.339844 " fill-opacity="1" fill-rule="nonzero"/><g clip-path="url(#id16)"><path fill="#64539c" d="M 134.386719 552.503906 L 138.847656 549.933594 C 138.824219 549.550781 138.824219 549.167969 138.847656 548.789062 C 138.824219 548.394531 138.824219 547.996094 138.847656 547.601562 L 134.386719 545.027344 C 133.675781 544.632812 133.070312 544.109375 132.574219 543.464844 C 132.078125 542.816406 131.726562 542.101562 131.523438 541.3125 C 131.316406 540.523438 131.265625 539.730469 131.371094 538.921875 C 131.476562 538.117188 131.734375 537.359375 132.136719 536.652344 L 136.226562 529.503906 C 136.429688 529.15625 136.664062 528.828125 136.929688 528.527344 C 137.195312 528.222656 137.488281 527.949219 137.804688 527.703125 C 138.125 527.460938 138.46875 527.246094 138.828125 527.070312 C 139.191406 526.890625 139.566406 526.75 139.953125 526.644531 C 140.34375 526.542969 140.738281 526.476562 141.140625 526.449219 C 141.542969 526.421875 141.945312 526.4375 142.34375 526.488281 C 142.746094 526.542969 143.136719 526.632812 143.519531 526.761719 C 143.898438 526.890625 144.265625 527.054688 144.613281 527.257812 L 149.074219 529.832031 L 151.078125 528.6875 L 151.078125 525.257812 C 146.558594 521.777344 141.554688 519.257812 136.0625 517.699219 C 136.765625 517.277344 137.445312 516.824219 138.097656 516.332031 C 138.753906 515.835938 139.378906 515.3125 139.972656 514.75 C 140.570312 514.191406 141.132812 513.597656 141.664062 512.976562 C 142.199219 512.355469 142.695312 511.707031 143.15625 511.03125 C 143.617188 510.355469 144.039062 509.65625 144.425781 508.9375 C 144.8125 508.214844 145.15625 507.476562 145.460938 506.714844 C 145.765625 505.957031 146.03125 505.183594 146.25 504.398438 C 146.472656 503.609375 146.648438 502.8125 146.78125 502.007812 C 146.917969 501.199219 147.007812 500.386719 147.054688 499.570312 C 147.097656 498.753906 147.101562 497.9375 147.058594 497.121094 C 147.015625 496.304688 146.929688 495.492188 146.796875 494.6875 C 146.667969 493.878906 146.492188 493.082031 146.273438 492.292969 C 146.058594 491.503906 145.796875 490.730469 145.496094 489.972656 C 145.195312 489.210938 144.851562 488.46875 144.46875 487.746094 C 144.085938 487.023438 143.664062 486.324219 143.207031 485.644531 C 142.75 484.96875 142.253906 484.316406 141.726562 483.695312 C 141.195312 483.070312 140.632812 482.476562 140.039062 481.914062 C 139.445312 481.351562 138.824219 480.820312 138.171875 480.328125 C 137.519531 479.832031 136.84375 479.371094 136.144531 478.949219 C 135.441406 478.527344 134.71875 478.144531 133.976562 477.800781 C 133.234375 477.457031 132.476562 477.15625 131.699219 476.894531 C 130.921875 476.632812 130.136719 476.414062 129.335938 476.238281 C 128.535156 476.0625 127.730469 475.929688 126.914062 475.839844 C 126.101562 475.753906 125.285156 475.707031 124.464844 475.707031 C 123.648438 475.707031 122.832031 475.753906 122.015625 475.839844 C 121.203125 475.929688 120.398438 476.0625 119.597656 476.238281 C 118.796875 476.414062 118.011719 476.632812 117.234375 476.894531 C 116.457031 477.15625 115.699219 477.457031 114.957031 477.800781 C 114.214844 478.144531 113.492188 478.527344 112.789062 478.949219 C 112.089844 479.371094 111.410156 479.832031 110.761719 480.328125 C 110.109375 480.824219 109.488281 481.351562 108.894531 481.914062 C 108.300781 482.476562 107.738281 483.070312 107.207031 483.695312 C 106.679688 484.316406 106.183594 484.96875 105.726562 485.644531 C 105.265625 486.324219 104.847656 487.023438 104.464844 487.746094 C 104.082031 488.46875 103.738281 489.210938 103.4375 489.972656 C 103.136719 490.730469 102.875 491.503906 102.660156 492.292969 C 102.441406 493.082031 102.265625 493.878906 102.136719 494.6875 C 102.003906 495.492188 101.917969 496.304688 101.875 497.121094 C 101.832031 497.9375 101.832031 498.753906 101.878906 499.570312 C 101.925781 500.386719 102.015625 501.199219 102.148438 502.007812 C 102.285156 502.8125 102.460938 503.609375 102.683594 504.398438 C 102.902344 505.183594 103.167969 505.957031 103.472656 506.714844 C 103.777344 507.476562 104.121094 508.214844 104.507812 508.9375 C 104.894531 509.65625 105.316406 510.355469 105.777344 511.03125 C 106.238281 511.707031 106.734375 512.355469 107.269531 512.976562 C 107.800781 513.597656 108.363281 514.191406 108.960938 514.75 C 109.554688 515.3125 110.179688 515.835938 110.835938 516.332031 C 111.488281 516.824219 112.164062 517.277344 112.867188 517.699219 C 111.683594 518.007812 110.511719 518.363281 109.355469 518.769531 C 108.199219 519.175781 107.058594 519.625 105.9375 520.125 C 104.820312 520.621094 103.722656 521.164062 102.644531 521.75 C 101.570312 522.339844 100.519531 522.96875 99.496094 523.644531 C 98.472656 524.316406 97.476562 525.03125 96.511719 525.785156 C 95.546875 526.539062 94.613281 527.332031 93.714844 528.160156 C 92.8125 528.992188 91.949219 529.855469 91.117188 530.757812 C 90.289062 531.660156 89.496094 532.59375 88.742188 533.558594 C 87.988281 534.523438 87.277344 535.519531 86.605469 536.542969 C 85.933594 537.566406 85.304688 538.617188 84.71875 539.691406 C 84.132812 540.765625 83.589844 541.863281 83.09375 542.984375 C 82.597656 544.101562 82.148438 545.242188 81.742188 546.398438 C 81.339844 547.554688 80.984375 548.722656 80.679688 549.910156 C 80.371094 551.09375 80.113281 552.289062 79.902344 553.496094 C 79.691406 554.703125 79.53125 555.914062 79.421875 557.132812 C 79.3125 558.351562 79.25 559.574219 79.242188 560.796875 C 79.234375 561.121094 79.292969 561.433594 79.414062 561.734375 C 79.535156 562.035156 79.707031 562.300781 79.933594 562.53125 C 80.160156 562.761719 80.421875 562.9375 80.722656 563.0625 C 81.019531 563.1875 81.332031 563.25 81.65625 563.25 L 133.324219 563.25 L 131.972656 560.878906 C 131.566406 560.175781 131.3125 559.417969 131.207031 558.613281 C 131.097656 557.804688 131.152344 557.007812 131.359375 556.222656 C 131.582031 555.417969 131.957031 554.695312 132.484375 554.046875 C 133.011719 553.402344 133.644531 552.886719 134.386719 552.503906 Z M 134.386719 552.503906 " fill-opacity="1" fill-rule="nonzero"/></g><g clip-path="url(#id17)"><path fill="#ffbd59" d="M 186.503906 556.058594 L 179.714844 551.972656 C 179.925781 550.867188 180.035156 549.75 180.042969 548.625 C 180.035156 547.496094 179.925781 546.382812 179.714844 545.273438 L 186.503906 541.1875 C 187.003906 540.90625 187.316406 540.480469 187.445312 539.921875 C 187.609375 539.375 187.542969 538.855469 187.242188 538.371094 L 183.152344 531.21875 C 183.019531 530.984375 182.84375 530.785156 182.628906 530.617188 C 182.414062 530.453125 182.179688 530.335938 181.914062 530.265625 C 181.652344 530.195312 181.386719 530.179688 181.121094 530.21875 C 180.851562 530.257812 180.601562 530.34375 180.367188 530.484375 L 173.578125 534.570312 C 171.855469 533.085938 169.917969 531.96875 167.769531 531.21875 L 167.769531 523.539062 C 167.769531 523.269531 167.71875 523.007812 167.613281 522.757812 C 167.507812 522.507812 167.363281 522.289062 167.167969 522.097656 C 166.976562 521.902344 166.757812 521.757812 166.507812 521.652344 C 166.253906 521.550781 165.996094 521.496094 165.722656 521.496094 L 157.542969 521.496094 C 157.269531 521.496094 157.007812 521.550781 156.757812 521.652344 C 156.507812 521.757812 156.289062 521.902344 156.09375 522.097656 C 155.902344 522.289062 155.753906 522.507812 155.652344 522.757812 C 155.546875 523.007812 155.496094 523.269531 155.496094 523.539062 L 155.496094 531.382812 C 153.347656 532.132812 151.410156 533.25 149.6875 534.734375 L 142.894531 530.648438 C 142.664062 530.507812 142.414062 530.421875 142.144531 530.382812 C 141.875 530.34375 141.613281 530.359375 141.347656 530.429688 C 141.085938 530.496094 140.847656 530.617188 140.636719 530.78125 C 140.421875 530.945312 140.246094 531.148438 140.113281 531.382812 L 136.023438 538.535156 C 135.886719 538.769531 135.800781 539.023438 135.765625 539.292969 C 135.730469 539.5625 135.746094 539.828125 135.816406 540.09375 C 135.886719 540.355469 136 540.597656 136.164062 540.816406 C 136.328125 541.03125 136.527344 541.210938 136.761719 541.351562 L 143.550781 545.4375 C 143.339844 546.542969 143.230469 547.660156 143.222656 548.789062 C 143.234375 549.914062 143.34375 551.03125 143.550781 552.136719 L 136.761719 556.222656 C 136.523438 556.355469 136.320312 556.527344 136.15625 556.742188 C 135.988281 556.957031 135.871094 557.195312 135.804688 557.457031 C 135.734375 557.71875 135.71875 557.984375 135.757812 558.25 C 135.792969 558.519531 135.882812 558.769531 136.023438 559 L 140.113281 566.152344 C 140.246094 566.386719 140.421875 566.585938 140.636719 566.753906 C 140.847656 566.917969 141.085938 567.035156 141.347656 567.105469 C 141.613281 567.175781 141.875 567.191406 142.144531 567.152344 C 142.414062 567.113281 142.664062 567.027344 142.894531 566.886719 L 149.6875 563.003906 C 151.421875 564.472656 153.355469 565.589844 155.496094 566.355469 L 155.496094 574.199219 C 155.5 574.46875 155.558594 574.726562 155.664062 574.972656 C 155.769531 575.222656 155.917969 575.441406 156.105469 575.632812 C 156.296875 575.820312 156.515625 575.96875 156.765625 576.074219 C 157.011719 576.179688 157.273438 576.234375 157.542969 576.242188 L 165.722656 576.242188 C 165.992188 576.234375 166.253906 576.179688 166.5 576.074219 C 166.75 575.96875 166.96875 575.820312 167.160156 575.632812 C 167.347656 575.441406 167.496094 575.222656 167.601562 574.972656 C 167.707031 574.726562 167.765625 574.46875 167.769531 574.199219 L 167.769531 566.191406 C 169.910156 565.425781 171.84375 564.308594 173.578125 562.839844 L 180.367188 566.722656 C 180.601562 566.863281 180.851562 566.949219 181.121094 566.988281 C 181.386719 567.027344 181.652344 567.011719 181.914062 566.941406 C 182.179688 566.875 182.414062 566.753906 182.628906 566.589844 C 182.84375 566.425781 183.019531 566.222656 183.152344 565.988281 L 187.242188 558.835938 C 187.546875 558.351562 187.617188 557.835938 187.445312 557.285156 C 187.328125 556.726562 187.011719 556.320312 186.503906 556.058594 Z M 186.503906 556.058594 " fill-opacity="1" fill-rule="nonzero"/></g><g clip-path="url(#id18)"><path fill="#64539c" d="M 162.578125 541.332031 C 158.097656 541.332031 154.488281 544.941406 154.488281 549.421875 C 154.488281 553.90625 158.097656 557.515625 162.578125 557.515625 C 167.015625 557.515625 170.667969 553.90625 170.667969 549.421875 C 170.667969 544.941406 167.015625 541.332031 162.578125 541.332031 Z M 162.578125 556.269531 C 158.800781 556.269531 155.730469 553.199219 155.730469 549.421875 C 155.730469 545.648438 158.800781 542.578125 162.578125 542.578125 C 166.351562 542.578125 169.421875 545.648438 169.421875 549.421875 C 169.421875 553.199219 166.351562 556.269531 162.578125 556.269531 Z M 162.578125 556.269531 " fill-opacity="1" fill-rule="nonzero"/></g><path fill="#64539c" d="M 162.578125 542.578125 C 158.800781 542.578125 155.730469 545.648438 155.730469 549.421875 C 155.730469 553.199219 158.800781 556.269531 162.578125 556.269531 C 166.351562 556.269531 169.421875 553.199219 169.421875 549.421875 C 169.421875 545.648438 166.351562 542.578125 162.578125 542.578125 Z M 162.578125 542.578125 " fill-opacity="1" fill-rule="nonzero"/><g fill="#000000" fill-opacity="1"><g transform="translate(228.784693, 354.519701)"><g><path d="M 30.65625 -19.046875 C 31.414062 -19.046875 32.03125 -18.820312 32.5 -18.375 C 32.96875 -17.925781 33.203125 -17.332031 33.203125 -16.59375 L 33.203125 -5.84375 C 33.203125 -4.3125 33 -3.226562 32.59375 -2.59375 C 32.195312 -1.96875 31.382812 -1.453125 30.15625 -1.046875 C 28.820312 -0.578125 27.269531 -0.210938 25.5 0.046875 C 23.726562 0.316406 22.03125 0.453125 20.40625 0.453125 C 16.769531 0.453125 13.617188 -0.257812 10.953125 -1.6875 C 8.285156 -3.125 6.242188 -5.203125 4.828125 -7.921875 C 3.410156 -10.640625 2.703125 -13.882812 2.703125 -17.65625 C 2.703125 -21.351562 3.410156 -24.554688 4.828125 -27.265625 C 6.242188 -29.984375 8.25 -32.066406 10.84375 -33.515625 C 13.445312 -34.972656 16.515625 -35.703125 20.046875 -35.703125 C 24.742188 -35.703125 28.59375 -34.4375 31.59375 -31.90625 C 32 -31.53125 32.289062 -31.160156 32.46875 -30.796875 C 32.65625 -30.429688 32.75 -30 32.75 -29.5 C 32.75 -28.769531 32.546875 -28.15625 32.140625 -27.65625 C 31.742188 -27.15625 31.265625 -26.90625 30.703125 -26.90625 C 30.335938 -26.90625 30.003906 -26.960938 29.703125 -27.078125 C 29.398438 -27.191406 29.050781 -27.382812 28.65625 -27.65625 C 27.1875 -28.6875 25.816406 -29.410156 24.546875 -29.828125 C 23.285156 -30.242188 21.851562 -30.453125 20.25 -30.453125 C 16.613281 -30.453125 13.867188 -29.375 12.015625 -27.21875 C 10.171875 -25.070312 9.25 -21.882812 9.25 -17.65625 C 9.25 -8.988281 13.050781 -4.65625 20.65625 -4.65625 C 22.914062 -4.65625 25.179688 -4.96875 27.453125 -5.59375 L 27.453125 -14.453125 L 21.796875 -14.453125 C 20.992188 -14.453125 20.367188 -14.648438 19.921875 -15.046875 C 19.472656 -15.453125 19.25 -16.019531 19.25 -16.75 C 19.25 -17.476562 19.472656 -18.039062 19.921875 -18.4375 C 20.367188 -18.84375 20.992188 -19.046875 21.796875 -19.046875 Z M 30.65625 -19.046875 "/></g></g></g><g fill="#000000" fill-opacity="1"><g transform="translate(265.429016, 354.519701)"><g><path d="M 22.59375 -6.703125 C 23.164062 -6.703125 23.625 -6.484375 23.96875 -6.046875 C 24.320312 -5.617188 24.5 -5.035156 24.5 -4.296875 C 24.5 -3.265625 23.882812 -2.398438 22.65625 -1.703125 C 21.519531 -1.066406 20.234375 -0.554688 18.796875 -0.171875 C 17.367188 0.210938 16.003906 0.40625 14.703125 0.40625 C 10.765625 0.40625 7.644531 -0.726562 5.34375 -3 C 3.050781 -5.269531 1.90625 -8.367188 1.90625 -12.296875 C 1.90625 -14.796875 2.40625 -17.007812 3.40625 -18.9375 C 4.40625 -20.875 5.8125 -22.375 7.625 -23.4375 C 9.4375 -24.507812 11.492188 -25.046875 13.796875 -25.046875 C 15.992188 -25.046875 17.910156 -24.5625 19.546875 -23.59375 C 21.179688 -22.632812 22.445312 -21.269531 23.34375 -19.5 C 24.25 -17.726562 24.703125 -15.644531 24.703125 -13.25 C 24.703125 -11.8125 24.066406 -11.09375 22.796875 -11.09375 L 8.046875 -11.09375 C 8.242188 -8.800781 8.894531 -7.113281 10 -6.03125 C 11.101562 -4.945312 12.703125 -4.40625 14.796875 -4.40625 C 15.867188 -4.40625 16.8125 -4.535156 17.625 -4.796875 C 18.4375 -5.066406 19.363281 -5.4375 20.40625 -5.90625 C 21.40625 -6.4375 22.132812 -6.703125 22.59375 -6.703125 Z M 13.953125 -20.65625 C 12.253906 -20.65625 10.894531 -20.117188 9.875 -19.046875 C 8.851562 -17.984375 8.242188 -16.453125 8.046875 -14.453125 L 19.34375 -14.453125 C 19.28125 -16.484375 18.78125 -18.023438 17.84375 -19.078125 C 16.914062 -20.128906 15.617188 -20.65625 13.953125 -20.65625 Z M 13.953125 -20.65625 "/></g></g></g><g fill="#000000" fill-opacity="1"><g transform="translate(291.974902, 354.519701)"><g><path d="M 15.953125 -4.34375 C 17.617188 -4.25 18.453125 -3.5 18.453125 -2.09375 C 18.453125 -1.300781 18.125 -0.695312 17.46875 -0.28125 C 16.820312 0.132812 15.898438 0.3125 14.703125 0.25 L 13.34375 0.15625 C 7.75 -0.25 4.953125 -3.25 4.953125 -8.84375 L 4.953125 -19.75 L 2.453125 -19.75 C 1.546875 -19.75 0.851562 -19.945312 0.375 -20.34375 C -0.101562 -20.75 -0.34375 -21.332031 -0.34375 -22.09375 C -0.34375 -22.863281 -0.101562 -23.445312 0.375 -23.84375 C 0.851562 -24.25 1.546875 -24.453125 2.453125 -24.453125 L 4.953125 -24.453125 L 4.953125 -29.046875 C 4.953125 -29.953125 5.234375 -30.671875 5.796875 -31.203125 C 6.367188 -31.734375 7.132812 -32 8.09375 -32 C 9.03125 -32 9.78125 -31.734375 10.34375 -31.203125 C 10.914062 -30.671875 11.203125 -29.953125 11.203125 -29.046875 L 11.203125 -24.453125 L 15.453125 -24.453125 C 16.347656 -24.453125 17.035156 -24.25 17.515625 -23.84375 C 18.003906 -23.445312 18.25 -22.863281 18.25 -22.09375 C 18.25 -21.332031 18.003906 -20.75 17.515625 -20.34375 C 17.035156 -19.945312 16.347656 -19.75 15.453125 -19.75 L 11.203125 -19.75 L 11.203125 -8.40625 C 11.203125 -5.9375 12.332031 -4.617188 14.59375 -4.453125 Z M 15.953125 -4.34375 "/></g></g></g><g fill="#000000" fill-opacity="1"><g transform="translate(310.422044, 354.519701)"><g/></g></g><g fill="#000000" fill-opacity="1"><g transform="translate(323.969948, 354.519701)"><g><path d="M 7 0.296875 C 6.03125 0.296875 5.253906 0 4.671875 -0.59375 C 4.085938 -1.195312 3.796875 -1.984375 3.796875 -2.953125 L 3.796875 -32.203125 C 3.796875 -33.171875 4.070312 -33.921875 4.625 -34.453125 C 5.175781 -34.984375 5.9375 -35.25 6.90625 -35.25 L 24.453125 -35.25 C 26.484375 -35.25 27.5 -34.382812 27.5 -32.65625 C 27.5 -30.945312 26.484375 -30.09375 24.453125 -30.09375 L 10.15625 -30.09375 L 10.15625 -20.5 L 23.453125 -20.5 C 25.484375 -20.5 26.5 -19.632812 26.5 -17.90625 C 26.5 -16.195312 25.484375 -15.34375 23.453125 -15.34375 L 10.15625 -15.34375 L 10.15625 -2.953125 C 10.15625 -1.984375 9.867188 -1.195312 9.296875 -0.59375 C 8.734375 0 7.96875 0.296875 7 0.296875 Z M 7 0.296875 "/></g></g></g><g fill="#000000" fill-opacity="1"><g transform="translate(352.265567, 354.519701)"><g><path d="M 22.546875 -24.953125 C 23.515625 -24.953125 24.28125 -24.679688 24.84375 -24.140625 C 25.414062 -23.609375 25.703125 -22.894531 25.703125 -22 L 25.703125 -2.59375 C 25.703125 -1.726562 25.410156 -1.03125 24.828125 -0.5 C 24.242188 0.03125 23.484375 0.296875 22.546875 0.296875 C 21.648438 0.296875 20.929688 0.046875 20.390625 -0.453125 C 19.859375 -0.953125 19.59375 -1.632812 19.59375 -2.5 L 19.59375 -3.75 C 18.832031 -2.414062 17.800781 -1.390625 16.5 -0.671875 C 15.195312 0.046875 13.726562 0.40625 12.09375 0.40625 C 6.09375 0.40625 3.09375 -2.960938 3.09375 -9.703125 L 3.09375 -22 C 3.09375 -22.894531 3.375 -23.609375 3.9375 -24.140625 C 4.507812 -24.679688 5.265625 -24.953125 6.203125 -24.953125 C 7.171875 -24.953125 7.9375 -24.679688 8.5 -24.140625 C 9.0625 -23.609375 9.34375 -22.894531 9.34375 -22 L 9.34375 -9.65625 C 9.34375 -7.914062 9.691406 -6.628906 10.390625 -5.796875 C 11.097656 -4.960938 12.203125 -4.546875 13.703125 -4.546875 C 15.429688 -4.546875 16.820312 -5.117188 17.875 -6.265625 C 18.925781 -7.421875 19.453125 -8.945312 19.453125 -10.84375 L 19.453125 -22 C 19.453125 -22.894531 19.734375 -23.609375 20.296875 -24.140625 C 20.867188 -24.679688 21.617188 -24.953125 22.546875 -24.953125 Z M 22.546875 -24.953125 "/></g></g></g><g fill="#000000" fill-opacity="1"><g transform="translate(381.211084, 354.519701)"><g><path d="M 15.953125 -4.34375 C 17.617188 -4.25 18.453125 -3.5 18.453125 -2.09375 C 18.453125 -1.300781 18.125 -0.695312 17.46875 -0.28125 C 16.820312 0.132812 15.898438 0.3125 14.703125 0.25 L 13.34375 0.15625 C 7.75 -0.25 4.953125 -3.25 4.953125 -8.84375 L 4.953125 -19.75 L 2.453125 -19.75 C 1.546875 -19.75 0.851562 -19.945312 0.375 -20.34375 C -0.101562 -20.75 -0.34375 -21.332031 -0.34375 -22.09375 C -0.34375 -22.863281 -0.101562 -23.445312 0.375 -23.84375 C 0.851562 -24.25 1.546875 -24.453125 2.453125 -24.453125 L 4.953125 -24.453125 L 4.953125 -29.046875 C 4.953125 -29.953125 5.234375 -30.671875 5.796875 -31.203125 C 6.367188 -31.734375 7.132812 -32 8.09375 -32 C 9.03125 -32 9.78125 -31.734375 10.34375 -31.203125 C 10.914062 -30.671875 11.203125 -29.953125 11.203125 -29.046875 L 11.203125 -24.453125 L 15.453125 -24.453125 C 16.347656 -24.453125 17.035156 -24.25 17.515625 -23.84375 C 18.003906 -23.445312 18.25 -22.863281 18.25 -22.09375 C 18.25 -21.332031 18.003906 -20.75 17.515625 -20.34375 C 17.035156 -19.945312 16.347656 -19.75 15.453125 -19.75 L 11.203125 -19.75 L 11.203125 -8.40625 C 11.203125 -5.9375 12.332031 -4.617188 14.59375 -4.453125 Z M 15.953125 -4.34375 "/></g></g></g><g fill="#000000" fill-opacity="1"><g transform="translate(399.658226, 354.519701)"><g><path d="M 22.546875 -24.953125 C 23.515625 -24.953125 24.28125 -24.679688 24.84375 -24.140625 C 25.414062 -23.609375 25.703125 -22.894531 25.703125 -22 L 25.703125 -2.59375 C 25.703125 -1.726562 25.410156 -1.03125 24.828125 -0.5 C 24.242188 0.03125 23.484375 0.296875 22.546875 0.296875 C 21.648438 0.296875 20.929688 0.046875 20.390625 -0.453125 C 19.859375 -0.953125 19.59375 -1.632812 19.59375 -2.5 L 19.59375 -3.75 C 18.832031 -2.414062 17.800781 -1.390625 16.5 -0.671875 C 15.195312 0.046875 13.726562 0.40625 12.09375 0.40625 C 6.09375 0.40625 3.09375 -2.960938 3.09375 -9.703125 L 3.09375 -22 C 3.09375 -22.894531 3.375 -23.609375 3.9375 -24.140625 C 4.507812 -24.679688 5.265625 -24.953125 6.203125 -24.953125 C 7.171875 -24.953125 7.9375 -24.679688 8.5 -24.140625 C 9.0625 -23.609375 9.34375 -22.894531 9.34375 -22 L 9.34375 -9.65625 C 9.34375 -7.914062 9.691406 -6.628906 10.390625 -5.796875 C 11.097656 -4.960938 12.203125 -4.546875 13.703125 -4.546875 C 15.429688 -4.546875 16.820312 -5.117188 17.875 -6.265625 C 18.925781 -7.421875 19.453125 -8.945312 19.453125 -10.84375 L 19.453125 -22 C 19.453125 -22.894531 19.734375 -23.609375 20.296875 -24.140625 C 20.867188 -24.679688 21.617188 -24.953125 22.546875 -24.953125 Z M 22.546875 -24.953125 "/></g></g></g><g fill="#000000" fill-opacity="1"><g transform="translate(428.603744, 354.519701)"><g><path d="M 16.90625 -24.953125 C 17.769531 -25.015625 18.453125 -24.828125 18.953125 -24.390625 C 19.453125 -23.960938 19.703125 -23.316406 19.703125 -22.453125 C 19.703125 -21.546875 19.484375 -20.875 19.046875 -20.4375 C 18.617188 -20.007812 17.835938 -19.726562 16.703125 -19.59375 L 15.203125 -19.453125 C 13.234375 -19.253906 11.789062 -18.585938 10.875 -17.453125 C 9.957031 -16.316406 9.5 -14.898438 9.5 -13.203125 L 9.5 -2.703125 C 9.5 -1.734375 9.195312 -0.988281 8.59375 -0.46875 C 8 0.0390625 7.25 0.296875 6.34375 0.296875 C 5.445312 0.296875 4.707031 0.0390625 4.125 -0.46875 C 3.539062 -0.988281 3.25 -1.734375 3.25 -2.703125 L 3.25 -22.046875 C 3.25 -22.984375 3.539062 -23.703125 4.125 -24.203125 C 4.707031 -24.703125 5.429688 -24.953125 6.296875 -24.953125 C 7.160156 -24.953125 7.859375 -24.707031 8.390625 -24.21875 C 8.929688 -23.738281 9.203125 -23.050781 9.203125 -22.15625 L 9.203125 -20.15625 C 9.835938 -21.613281 10.78125 -22.742188 12.03125 -23.546875 C 13.28125 -24.347656 14.671875 -24.800781 16.203125 -24.90625 Z M 16.90625 -24.953125 "/></g></g></g><g fill="#000000" fill-opacity="1"><g transform="translate(447.750784, 354.519701)"><g><path d="M 22.59375 -6.703125 C 23.164062 -6.703125 23.625 -6.484375 23.96875 -6.046875 C 24.320312 -5.617188 24.5 -5.035156 24.5 -4.296875 C 24.5 -3.265625 23.882812 -2.398438 22.65625 -1.703125 C 21.519531 -1.066406 20.234375 -0.554688 18.796875 -0.171875 C 17.367188 0.210938 16.003906 0.40625 14.703125 0.40625 C 10.765625 0.40625 7.644531 -0.726562 5.34375 -3 C 3.050781 -5.269531 1.90625 -8.367188 1.90625 -12.296875 C 1.90625 -14.796875 2.40625 -17.007812 3.40625 -18.9375 C 4.40625 -20.875 5.8125 -22.375 7.625 -23.4375 C 9.4375 -24.507812 11.492188 -25.046875 13.796875 -25.046875 C 15.992188 -25.046875 17.910156 -24.5625 19.546875 -23.59375 C 21.179688 -22.632812 22.445312 -21.269531 23.34375 -19.5 C 24.25 -17.726562 24.703125 -15.644531 24.703125 -13.25 C 24.703125 -11.8125 24.066406 -11.09375 22.796875 -11.09375 L 8.046875 -11.09375 C 8.242188 -8.800781 8.894531 -7.113281 10 -6.03125 C 11.101562 -4.945312 12.703125 -4.40625 14.796875 -4.40625 C 15.867188 -4.40625 16.8125 -4.535156 17.625 -4.796875 C 18.4375 -5.066406 19.363281 -5.4375 20.40625 -5.90625 C 21.40625 -6.4375 22.132812 -6.703125 22.59375 -6.703125 Z M 13.953125 -20.65625 C 12.253906 -20.65625 10.894531 -20.117188 9.875 -19.046875 C 8.851562 -17.984375 8.242188 -16.453125 8.046875 -14.453125 L 19.34375 -14.453125 C 19.28125 -16.484375 18.78125 -18.023438 17.84375 -19.078125 C 16.914062 -20.128906 15.617188 -20.65625 13.953125 -20.65625 Z M 13.953125 -20.65625 "/></g></g></g><g fill="#000000" fill-opacity="1"><g transform="translate(279.233909, 407.769699)"><g><path d="M 32 -4.046875 C 32.394531 -3.453125 32.59375 -2.867188 32.59375 -2.296875 C 32.59375 -1.535156 32.285156 -0.90625 31.671875 -0.40625 C 31.054688 0.09375 30.332031 0.34375 29.5 0.34375 C 28.96875 0.34375 28.457031 0.21875 27.96875 -0.03125 C 27.488281 -0.28125 27.082031 -0.65625 26.75 -1.15625 L 20.09375 -11.25 C 19.425781 -12.3125 18.71875 -13.0625 17.96875 -13.5 C 17.21875 -13.9375 16.242188 -14.15625 15.046875 -14.15625 L 10.15625 -14.15625 L 10.15625 -2.953125 C 10.15625 -1.953125 9.867188 -1.160156 9.296875 -0.578125 C 8.734375 0.00390625 7.96875 0.296875 7 0.296875 C 6.03125 0.296875 5.253906 0.00390625 4.671875 -0.578125 C 4.085938 -1.160156 3.796875 -1.953125 3.796875 -2.953125 L 3.796875 -32.203125 C 3.796875 -33.171875 4.070312 -33.921875 4.625 -34.453125 C 5.175781 -34.984375 5.9375 -35.25 6.90625 -35.25 L 19.40625 -35.25 C 23.40625 -35.25 26.445312 -34.359375 28.53125 -32.578125 C 30.613281 -30.796875 31.65625 -28.21875 31.65625 -24.84375 C 31.65625 -22.113281 30.878906 -19.875 29.328125 -18.125 C 27.773438 -16.375 25.582031 -15.25 22.75 -14.75 C 23.71875 -14.519531 24.566406 -14.101562 25.296875 -13.5 C 26.035156 -12.894531 26.753906 -12.0625 27.453125 -11 Z M 18.5 -19.09375 C 20.9375 -19.09375 22.71875 -19.550781 23.84375 -20.46875 C 24.976562 -21.382812 25.546875 -22.796875 25.546875 -24.703125 C 25.546875 -26.628906 24.976562 -28.035156 23.84375 -28.921875 C 22.71875 -29.804688 20.9375 -30.25 18.5 -30.25 L 10.09375 -30.25 L 10.09375 -19.09375 Z M 18.5 -19.09375 "/></g></g></g><g fill="#000000" fill-opacity="1"><g transform="translate(313.978525, 407.769699)"><g><path d="M 22.59375 -6.703125 C 23.164062 -6.703125 23.625 -6.484375 23.96875 -6.046875 C 24.320312 -5.617188 24.5 -5.035156 24.5 -4.296875 C 24.5 -3.265625 23.882812 -2.398438 22.65625 -1.703125 C 21.519531 -1.066406 20.234375 -0.554688 18.796875 -0.171875 C 17.367188 0.210938 16.003906 0.40625 14.703125 0.40625 C 10.765625 0.40625 7.644531 -0.726562 5.34375 -3 C 3.050781 -5.269531 1.90625 -8.367188 1.90625 -12.296875 C 1.90625 -14.796875 2.40625 -17.007812 3.40625 -18.9375 C 4.40625 -20.875 5.8125 -22.375 7.625 -23.4375 C 9.4375 -24.507812 11.492188 -25.046875 13.796875 -25.046875 C 15.992188 -25.046875 17.910156 -24.5625 19.546875 -23.59375 C 21.179688 -22.632812 22.445312 -21.269531 23.34375 -19.5 C 24.25 -17.726562 24.703125 -15.644531 24.703125 -13.25 C 24.703125 -11.8125 24.066406 -11.09375 22.796875 -11.09375 L 8.046875 -11.09375 C 8.242188 -8.800781 8.894531 -7.113281 10 -6.03125 C 11.101562 -4.945312 12.703125 -4.40625 14.796875 -4.40625 C 15.867188 -4.40625 16.8125 -4.535156 17.625 -4.796875 C 18.4375 -5.066406 19.363281 -5.4375 20.40625 -5.90625 C 21.40625 -6.4375 22.132812 -6.703125 22.59375 -6.703125 Z M 13.953125 -20.65625 C 12.253906 -20.65625 10.894531 -20.117188 9.875 -19.046875 C 8.851562 -17.984375 8.242188 -16.453125 8.046875 -14.453125 L 19.34375 -14.453125 C 19.28125 -16.484375 18.78125 -18.023438 17.84375 -19.078125 C 16.914062 -20.128906 15.617188 -20.65625 13.953125 -20.65625 Z M 13.953125 -20.65625 "/></g></g></g><g fill="#000000" fill-opacity="1"><g transform="translate(340.524411, 407.769699)"><g><path d="M 13.84375 -25.046875 C 17.25 -25.046875 19.773438 -24.203125 21.421875 -22.515625 C 23.078125 -20.835938 23.90625 -18.28125 23.90625 -14.84375 L 23.90625 -2.65625 C 23.90625 -1.75 23.632812 -1.035156 23.09375 -0.515625 C 22.5625 -0.00390625 21.832031 0.25 20.90625 0.25 C 20.03125 0.25 19.316406 -0.015625 18.765625 -0.546875 C 18.222656 -1.078125 17.953125 -1.78125 17.953125 -2.65625 L 17.953125 -3.75 C 17.378906 -2.445312 16.484375 -1.425781 15.265625 -0.6875 C 14.054688 0.0390625 12.648438 0.40625 11.046875 0.40625 C 9.410156 0.40625 7.925781 0.0703125 6.59375 -0.59375 C 5.257812 -1.257812 4.207031 -2.175781 3.4375 -3.34375 C 2.675781 -4.507812 2.296875 -5.8125 2.296875 -7.25 C 2.296875 -9.050781 2.753906 -10.46875 3.671875 -11.5 C 4.585938 -12.53125 6.078125 -13.28125 8.140625 -13.75 C 10.210938 -14.21875 13.066406 -14.453125 16.703125 -14.453125 L 17.953125 -14.453125 L 17.953125 -15.59375 C 17.953125 -17.226562 17.597656 -18.421875 16.890625 -19.171875 C 16.191406 -19.921875 15.0625 -20.296875 13.5 -20.296875 C 12.53125 -20.296875 11.546875 -20.15625 10.546875 -19.875 C 9.546875 -19.59375 8.363281 -19.1875 7 -18.65625 C 6.132812 -18.21875 5.5 -18 5.09375 -18 C 4.5 -18 4.007812 -18.210938 3.625 -18.640625 C 3.238281 -19.078125 3.046875 -19.644531 3.046875 -20.34375 C 3.046875 -20.914062 3.1875 -21.410156 3.46875 -21.828125 C 3.757812 -22.242188 4.238281 -22.632812 4.90625 -23 C 6.070312 -23.632812 7.460938 -24.132812 9.078125 -24.5 C 10.691406 -24.863281 12.28125 -25.046875 13.84375 -25.046875 Z M 12.296875 -4.09375 C 13.960938 -4.09375 15.320312 -4.648438 16.375 -5.765625 C 17.425781 -6.890625 17.953125 -8.332031 17.953125 -10.09375 L 17.953125 -11.15625 L 17.046875 -11.15625 C 14.816406 -11.15625 13.082031 -11.050781 11.84375 -10.84375 C 10.613281 -10.644531 9.734375 -10.296875 9.203125 -9.796875 C 8.671875 -9.296875 8.40625 -8.613281 8.40625 -7.75 C 8.40625 -6.6875 8.78125 -5.8125 9.53125 -5.125 C 10.28125 -4.4375 11.203125 -4.09375 12.296875 -4.09375 Z M 12.296875 -4.09375 "/></g></g></g><g fill="#000000" fill-opacity="1"><g transform="translate(367.520233, 407.769699)"><g><path d="M 23.65625 -35.5 C 24.582031 -35.5 25.34375 -35.234375 25.9375 -34.703125 C 26.539062 -34.171875 26.84375 -33.46875 26.84375 -32.59375 L 26.84375 -2.703125 C 26.84375 -1.796875 26.5625 -1.078125 26 -0.546875 C 25.4375 -0.015625 24.6875 0.25 23.75 0.25 C 22.8125 0.25 22.0625 -0.015625 21.5 -0.546875 C 20.9375 -1.078125 20.65625 -1.796875 20.65625 -2.703125 L 20.65625 -3.953125 C 19.914062 -2.585938 18.851562 -1.519531 17.46875 -0.75 C 16.09375 0.0195312 14.519531 0.40625 12.75 0.40625 C 10.644531 0.40625 8.769531 -0.125 7.125 -1.1875 C 5.476562 -2.257812 4.195312 -3.769531 3.28125 -5.71875 C 2.363281 -7.675781 1.90625 -9.921875 1.90625 -12.453125 C 1.90625 -14.984375 2.363281 -17.195312 3.28125 -19.09375 C 4.195312 -21 5.46875 -22.46875 7.09375 -23.5 C 8.726562 -24.53125 10.613281 -25.046875 12.75 -25.046875 C 14.519531 -25.046875 16.085938 -24.675781 17.453125 -23.9375 C 18.816406 -23.207031 19.863281 -22.175781 20.59375 -20.84375 L 20.59375 -32.703125 C 20.59375 -33.535156 20.867188 -34.207031 21.421875 -34.71875 C 21.972656 -35.238281 22.71875 -35.5 23.65625 -35.5 Z M 14.40625 -4.453125 C 16.40625 -4.453125 17.945312 -5.132812 19.03125 -6.5 C 20.113281 -7.863281 20.65625 -9.8125 20.65625 -12.34375 C 20.65625 -14.882812 20.113281 -16.828125 19.03125 -18.171875 C 17.945312 -19.523438 16.421875 -20.203125 14.453125 -20.203125 C 12.453125 -20.203125 10.898438 -19.535156 9.796875 -18.203125 C 8.703125 -16.867188 8.15625 -14.953125 8.15625 -12.453125 C 8.15625 -9.921875 8.703125 -7.953125 9.796875 -6.546875 C 10.898438 -5.148438 12.4375 -4.453125 14.40625 -4.453125 Z M 14.40625 -4.453125 "/></g></g></g><g fill="#000000" fill-opacity="1"><g transform="translate(397.565585, 407.769699)"><g><path d="M 20.296875 -23.15625 C 20.566406 -23.75 20.925781 -24.1875 21.375 -24.46875 C 21.820312 -24.757812 22.3125 -24.90625 22.84375 -24.90625 C 23.613281 -24.90625 24.304688 -24.644531 24.921875 -24.125 C 25.535156 -23.601562 25.84375 -22.960938 25.84375 -22.203125 C 25.84375 -21.835938 25.742188 -21.453125 25.546875 -21.046875 L 11.90625 7.546875 C 11.332031 8.679688 10.445312 9.25 9.25 9.25 C 8.476562 9.25 7.800781 9.003906 7.21875 8.515625 C 6.632812 8.035156 6.34375 7.429688 6.34375 6.703125 C 6.34375 6.335938 6.445312 5.921875 6.65625 5.453125 L 10.046875 -1.703125 L 0.75 -21.046875 C 0.582031 -21.378906 0.5 -21.765625 0.5 -22.203125 C 0.5 -22.960938 0.820312 -23.609375 1.46875 -24.140625 C 2.125 -24.679688 2.867188 -24.953125 3.703125 -24.953125 C 4.265625 -24.953125 4.78125 -24.804688 5.25 -24.515625 C 5.71875 -24.234375 6.082031 -23.796875 6.34375 -23.203125 L 13.34375 -7.75 Z M 20.296875 -23.15625 "/></g></g></g><g fill="#000000" fill-opacity="1"><g transform="translate(254.530785, 461.019696)"><g><path d="M 48 -33.546875 C 48.226562 -34.210938 48.601562 -34.710938 49.125 -35.046875 C 49.644531 -35.378906 50.21875 -35.546875 50.84375 -35.546875 C 51.644531 -35.546875 52.335938 -35.296875 52.921875 -34.796875 C 53.503906 -34.296875 53.796875 -33.628906 53.796875 -32.796875 C 53.796875 -32.492188 53.710938 -32.0625 53.546875 -31.5 L 42.796875 -1.75 C 42.535156 -1.082031 42.09375 -0.566406 41.46875 -0.203125 C 40.851562 0.160156 40.179688 0.34375 39.453125 0.34375 C 38.710938 0.34375 38.023438 0.160156 37.390625 -0.203125 C 36.765625 -0.566406 36.332031 -1.082031 36.09375 -1.75 L 27.796875 -25.296875 L 19.34375 -1.75 C 19.082031 -1.082031 18.640625 -0.566406 18.015625 -0.203125 C 17.398438 0.160156 16.726562 0.34375 16 0.34375 C 15.269531 0.34375 14.59375 0.160156 13.96875 -0.203125 C 13.351562 -0.566406 12.929688 -1.082031 12.703125 -1.75 L 1.953125 -31.5 C 1.785156 -32 1.703125 -32.429688 1.703125 -32.796875 C 1.703125 -33.628906 2.007812 -34.296875 2.625 -34.796875 C 3.238281 -35.296875 3.960938 -35.546875 4.796875 -35.546875 C 5.460938 -35.546875 6.0625 -35.378906 6.59375 -35.046875 C 7.132812 -34.710938 7.519531 -34.210938 7.75 -33.546875 L 16.25 -9.09375 L 25 -33.40625 C 25.226562 -34.070312 25.609375 -34.59375 26.140625 -34.96875 C 26.679688 -35.351562 27.269531 -35.546875 27.90625 -35.546875 C 28.53125 -35.546875 29.117188 -35.351562 29.671875 -34.96875 C 30.222656 -34.59375 30.613281 -34.050781 30.84375 -33.34375 L 39.34375 -8.796875 Z M 48 -33.546875 "/></g></g></g><g fill="#000000" fill-opacity="1"><g transform="translate(310.0222, 461.019696)"><g><path d="M 22.59375 -6.703125 C 23.164062 -6.703125 23.625 -6.484375 23.96875 -6.046875 C 24.320312 -5.617188 24.5 -5.035156 24.5 -4.296875 C 24.5 -3.265625 23.882812 -2.398438 22.65625 -1.703125 C 21.519531 -1.066406 20.234375 -0.554688 18.796875 -0.171875 C 17.367188 0.210938 16.003906 0.40625 14.703125 0.40625 C 10.765625 0.40625 7.644531 -0.726562 5.34375 -3 C 3.050781 -5.269531 1.90625 -8.367188 1.90625 -12.296875 C 1.90625 -14.796875 2.40625 -17.007812 3.40625 -18.9375 C 4.40625 -20.875 5.8125 -22.375 7.625 -23.4375 C 9.4375 -24.507812 11.492188 -25.046875 13.796875 -25.046875 C 15.992188 -25.046875 17.910156 -24.5625 19.546875 -23.59375 C 21.179688 -22.632812 22.445312 -21.269531 23.34375 -19.5 C 24.25 -17.726562 24.703125 -15.644531 24.703125 -13.25 C 24.703125 -11.8125 24.066406 -11.09375 22.796875 -11.09375 L 8.046875 -11.09375 C 8.242188 -8.800781 8.894531 -7.113281 10 -6.03125 C 11.101562 -4.945312 12.703125 -4.40625 14.796875 -4.40625 C 15.867188 -4.40625 16.8125 -4.535156 17.625 -4.796875 C 18.4375 -5.066406 19.363281 -5.4375 20.40625 -5.90625 C 21.40625 -6.4375 22.132812 -6.703125 22.59375 -6.703125 Z M 13.953125 -20.65625 C 12.253906 -20.65625 10.894531 -20.117188 9.875 -19.046875 C 8.851562 -17.984375 8.242188 -16.453125 8.046875 -14.453125 L 19.34375 -14.453125 C 19.28125 -16.484375 18.78125 -18.023438 17.84375 -19.078125 C 16.914062 -20.128906 15.617188 -20.65625 13.953125 -20.65625 Z M 13.953125 -20.65625 "/></g></g></g><g fill="#000000" fill-opacity="1"><g transform="translate(336.568085, 461.019696)"><g><path d="M 17.296875 -25.046875 C 19.429688 -25.046875 21.316406 -24.53125 22.953125 -23.5 C 24.585938 -22.46875 25.863281 -21 26.78125 -19.09375 C 27.695312 -17.195312 28.15625 -14.984375 28.15625 -12.453125 C 28.15625 -9.921875 27.695312 -7.675781 26.78125 -5.71875 C 25.863281 -3.769531 24.578125 -2.257812 22.921875 -1.1875 C 21.273438 -0.125 19.398438 0.40625 17.296875 0.40625 C 15.535156 0.40625 13.960938 0.0195312 12.578125 -0.75 C 11.191406 -1.519531 10.132812 -2.585938 9.40625 -3.953125 L 9.40625 -2.703125 C 9.40625 -1.796875 9.117188 -1.078125 8.546875 -0.546875 C 7.984375 -0.015625 7.234375 0.25 6.296875 0.25 C 5.367188 0.25 4.628906 -0.015625 4.078125 -0.546875 C 3.523438 -1.078125 3.25 -1.796875 3.25 -2.703125 L 3.25 -32.59375 C 3.25 -33.46875 3.539062 -34.171875 4.125 -34.703125 C 4.707031 -35.234375 5.46875 -35.5 6.40625 -35.5 C 7.332031 -35.5 8.078125 -35.25 8.640625 -34.75 C 9.210938 -34.25 9.5 -33.566406 9.5 -32.703125 L 9.5 -20.90625 C 10.226562 -22.238281 11.273438 -23.257812 12.640625 -23.96875 C 14.015625 -24.6875 15.566406 -25.046875 17.296875 -25.046875 Z M 15.65625 -4.453125 C 17.613281 -4.453125 19.144531 -5.148438 20.25 -6.546875 C 21.351562 -7.953125 21.90625 -9.921875 21.90625 -12.453125 C 21.90625 -14.953125 21.363281 -16.867188 20.28125 -18.203125 C 19.195312 -19.535156 17.65625 -20.203125 15.65625 -20.203125 C 13.65625 -20.203125 12.113281 -19.523438 11.03125 -18.171875 C 9.945312 -16.828125 9.40625 -14.882812 9.40625 -12.34375 C 9.40625 -9.8125 9.945312 -7.863281 11.03125 -6.5 C 12.113281 -5.132812 13.65625 -4.453125 15.65625 -4.453125 Z M 15.65625 -4.453125 "/></g></g></g><g fill="#000000" fill-opacity="1"><g transform="translate(366.613437, 461.019696)"><g><path d="M 12.09375 0.40625 C 8.46875 0.40625 5.535156 -0.3125 3.296875 -1.75 C 2.234375 -2.382812 1.703125 -3.285156 1.703125 -4.453125 C 1.703125 -5.117188 1.882812 -5.660156 2.25 -6.078125 C 2.613281 -6.492188 3.0625 -6.703125 3.59375 -6.703125 C 4.164062 -6.703125 4.953125 -6.4375 5.953125 -5.90625 C 7.015625 -5.40625 7.988281 -5.019531 8.875 -4.75 C 9.757812 -4.476562 10.882812 -4.34375 12.25 -4.34375 C 13.644531 -4.34375 14.734375 -4.578125 15.515625 -5.046875 C 16.304688 -5.515625 16.703125 -6.164062 16.703125 -7 C 16.703125 -7.5625 16.539062 -8.007812 16.21875 -8.34375 C 15.90625 -8.675781 15.335938 -8.984375 14.515625 -9.265625 C 13.703125 -9.554688 12.460938 -9.882812 10.796875 -10.25 C 7.828125 -10.851562 5.703125 -11.703125 4.421875 -12.796875 C 3.140625 -13.898438 2.5 -15.414062 2.5 -17.34375 C 2.5 -18.8125 2.929688 -20.132812 3.796875 -21.3125 C 4.660156 -22.5 5.851562 -23.414062 7.375 -24.0625 C 8.894531 -24.71875 10.617188 -25.046875 12.546875 -25.046875 C 13.953125 -25.046875 15.300781 -24.867188 16.59375 -24.515625 C 17.894531 -24.171875 19.0625 -23.664062 20.09375 -23 C 21.164062 -22.332031 21.703125 -21.445312 21.703125 -20.34375 C 21.703125 -19.675781 21.515625 -19.117188 21.140625 -18.671875 C 20.773438 -18.222656 20.328125 -18 19.796875 -18 C 19.429688 -18 19.070312 -18.070312 18.71875 -18.21875 C 18.375 -18.375 17.9375 -18.601562 17.40625 -18.90625 C 16.4375 -19.40625 15.597656 -19.78125 14.890625 -20.03125 C 14.191406 -20.28125 13.328125 -20.40625 12.296875 -20.40625 C 11.066406 -20.40625 10.09375 -20.15625 9.375 -19.65625 C 8.65625 -19.15625 8.296875 -18.46875 8.296875 -17.59375 C 8.296875 -16.757812 8.660156 -16.125 9.390625 -15.6875 C 10.128906 -15.257812 11.550781 -14.832031 13.65625 -14.40625 C 15.882812 -13.9375 17.628906 -13.398438 18.890625 -12.796875 C 20.160156 -12.203125 21.070312 -11.453125 21.625 -10.546875 C 22.175781 -9.648438 22.453125 -8.5 22.453125 -7.09375 C 22.453125 -4.832031 21.507812 -3.015625 19.625 -1.640625 C 17.738281 -0.273438 15.226562 0.40625 12.09375 0.40625 Z M 12.09375 0.40625 "/></g></g></g><g fill="#000000" fill-opacity="1"><g transform="translate(390.859678, 461.019696)"><g><path d="M 6.34375 0.296875 C 5.445312 0.296875 4.707031 0.0390625 4.125 -0.46875 C 3.539062 -0.988281 3.25 -1.734375 3.25 -2.703125 L 3.25 -22 C 3.25 -22.96875 3.539062 -23.703125 4.125 -24.203125 C 4.707031 -24.703125 5.445312 -24.953125 6.34375 -24.953125 C 7.25 -24.953125 8 -24.703125 8.59375 -24.203125 C 9.195312 -23.703125 9.5 -22.96875 9.5 -22 L 9.5 -2.703125 C 9.5 -1.734375 9.195312 -0.988281 8.59375 -0.46875 C 8 0.0390625 7.25 0.296875 6.34375 0.296875 Z M 6.34375 -29.40625 C 5.207031 -29.40625 4.304688 -29.710938 3.640625 -30.328125 C 2.972656 -30.941406 2.640625 -31.75 2.640625 -32.75 C 2.640625 -33.75 2.972656 -34.546875 3.640625 -35.140625 C 4.304688 -35.742188 5.207031 -36.046875 6.34375 -36.046875 C 7.445312 -36.046875 8.335938 -35.742188 9.015625 -35.140625 C 9.703125 -34.546875 10.046875 -33.75 10.046875 -32.75 C 10.046875 -31.75 9.710938 -30.941406 9.046875 -30.328125 C 8.378906 -29.710938 7.476562 -29.40625 6.34375 -29.40625 Z M 6.34375 -29.40625 "/></g></g></g><g fill="#000000" fill-opacity="1"><g transform="translate(403.55771, 461.019696)"><g><path d="M 15.953125 -4.34375 C 17.617188 -4.25 18.453125 -3.5 18.453125 -2.09375 C 18.453125 -1.300781 18.125 -0.695312 17.46875 -0.28125 C 16.820312 0.132812 15.898438 0.3125 14.703125 0.25 L 13.34375 0.15625 C 7.75 -0.25 4.953125 -3.25 4.953125 -8.84375 L 4.953125 -19.75 L 2.453125 -19.75 C 1.546875 -19.75 0.851562 -19.945312 0.375 -20.34375 C -0.101562 -20.75 -0.34375 -21.332031 -0.34375 -22.09375 C -0.34375 -22.863281 -0.101562 -23.445312 0.375 -23.84375 C 0.851562 -24.25 1.546875 -24.453125 2.453125 -24.453125 L 4.953125 -24.453125 L 4.953125 -29.046875 C 4.953125 -29.953125 5.234375 -30.671875 5.796875 -31.203125 C 6.367188 -31.734375 7.132812 -32 8.09375 -32 C 9.03125 -32 9.78125 -31.734375 10.34375 -31.203125 C 10.914062 -30.671875 11.203125 -29.953125 11.203125 -29.046875 L 11.203125 -24.453125 L 15.453125 -24.453125 C 16.347656 -24.453125 17.035156 -24.25 17.515625 -23.84375 C 18.003906 -23.445312 18.25 -22.863281 18.25 -22.09375 C 18.25 -21.332031 18.003906 -20.75 17.515625 -20.34375 C 17.035156 -19.945312 16.347656 -19.75 15.453125 -19.75 L 11.203125 -19.75 L 11.203125 -8.40625 C 11.203125 -5.9375 12.332031 -4.617188 14.59375 -4.453125 Z M 15.953125 -4.34375 "/></g></g></g><g fill="#000000" fill-opacity="1"><g transform="translate(422.004853, 461.019696)"><g><path d="M 22.59375 -6.703125 C 23.164062 -6.703125 23.625 -6.484375 23.96875 -6.046875 C 24.320312 -5.617188 24.5 -5.035156 24.5 -4.296875 C 24.5 -3.265625 23.882812 -2.398438 22.65625 -1.703125 C 21.519531 -1.066406 20.234375 -0.554688 18.796875 -0.171875 C 17.367188 0.210938 16.003906 0.40625 14.703125 0.40625 C 10.765625 0.40625 7.644531 -0.726562 5.34375 -3 C 3.050781 -5.269531 1.90625 -8.367188 1.90625 -12.296875 C 1.90625 -14.796875 2.40625 -17.007812 3.40625 -18.9375 C 4.40625 -20.875 5.8125 -22.375 7.625 -23.4375 C 9.4375 -24.507812 11.492188 -25.046875 13.796875 -25.046875 C 15.992188 -25.046875 17.910156 -24.5625 19.546875 -23.59375 C 21.179688 -22.632812 22.445312 -21.269531 23.34375 -19.5 C 24.25 -17.726562 24.703125 -15.644531 24.703125 -13.25 C 24.703125 -11.8125 24.066406 -11.09375 22.796875 -11.09375 L 8.046875 -11.09375 C 8.242188 -8.800781 8.894531 -7.113281 10 -6.03125 C 11.101562 -4.945312 12.703125 -4.40625 14.796875 -4.40625 C 15.867188 -4.40625 16.8125 -4.535156 17.625 -4.796875 C 18.4375 -5.066406 19.363281 -5.4375 20.40625 -5.90625 C 21.40625 -6.4375 22.132812 -6.703125 22.59375 -6.703125 Z M 13.953125 -20.65625 C 12.253906 -20.65625 10.894531 -20.117188 9.875 -19.046875 C 8.851562 -17.984375 8.242188 -16.453125 8.046875 -14.453125 L 19.34375 -14.453125 C 19.28125 -16.484375 18.78125 -18.023438 17.84375 -19.078125 C 16.914062 -20.128906 15.617188 -20.65625 13.953125 -20.65625 Z M 13.953125 -20.65625 "/></g></g></g><g fill="#000000" fill-opacity="1"><g transform="translate(288.496072, 64.492213)"><g><path d="M 24.953125 3.75 C 25.222656 4.207031 25.359375 4.648438 25.359375 5.078125 C 25.359375 5.660156 25.128906 6.132812 24.671875 6.5 C 24.210938 6.875 23.679688 7.0625 23.078125 7.0625 C 22.617188 7.0625 22.1875 6.953125 21.78125 6.734375 C 21.375 6.523438 21.039062 6.203125 20.78125 5.765625 L 18.53125 2.0625 C 18.175781 1.476562 17.710938 1.046875 17.140625 0.765625 C 16.566406 0.484375 15.820312 0.34375 14.90625 0.34375 C 12.28125 0.34375 10.003906 -0.210938 8.078125 -1.328125 C 6.160156 -2.453125 4.675781 -4.054688 3.625 -6.140625 C 2.582031 -8.234375 2.0625 -10.679688 2.0625 -13.484375 C 2.0625 -16.285156 2.582031 -18.722656 3.625 -20.796875 C 4.675781 -22.878906 6.160156 -24.476562 8.078125 -25.59375 C 10.003906 -26.71875 12.28125 -27.28125 14.90625 -27.28125 C 17.5 -27.28125 19.753906 -26.71875 21.671875 -25.59375 C 23.597656 -24.476562 25.082031 -22.878906 26.125 -20.796875 C 27.175781 -18.722656 27.703125 -16.285156 27.703125 -13.484375 C 27.703125 -10.453125 27.09375 -7.847656 25.875 -5.671875 C 24.664062 -3.492188 22.941406 -1.910156 20.703125 -0.921875 C 21.878906 -0.515625 22.847656 0.328125 23.609375 1.609375 Z M 14.90625 -3.59375 C 17.375 -3.59375 19.300781 -4.441406 20.6875 -6.140625 C 22.070312 -7.847656 22.765625 -10.296875 22.765625 -13.484375 C 22.765625 -16.671875 22.070312 -19.109375 20.6875 -20.796875 C 19.300781 -22.492188 17.375 -23.34375 14.90625 -23.34375 C 12.40625 -23.34375 10.457031 -22.492188 9.0625 -20.796875 C 7.675781 -19.109375 6.984375 -16.671875 6.984375 -13.484375 C 6.984375 -10.296875 7.675781 -7.847656 9.0625 -6.140625 C 10.457031 -4.441406 12.40625 -3.59375 14.90625 -3.59375 Z M 14.90625 -3.59375 "/></g></g></g><g fill="#000000" fill-opacity="1"><g transform="translate(318.252055, 64.492213)"><g><path d="M 17.234375 -19.0625 C 17.972656 -19.0625 18.554688 -18.859375 18.984375 -18.453125 C 19.421875 -18.046875 19.640625 -17.5 19.640625 -16.8125 L 19.640625 -1.984375 C 19.640625 -1.328125 19.414062 -0.789062 18.96875 -0.375 C 18.519531 0.03125 17.941406 0.234375 17.234375 0.234375 C 16.546875 0.234375 15.992188 0.0390625 15.578125 -0.34375 C 15.171875 -0.726562 14.96875 -1.25 14.96875 -1.90625 L 14.96875 -2.859375 C 14.382812 -1.847656 13.59375 -1.066406 12.59375 -0.515625 C 11.601562 0.0351562 10.488281 0.3125 9.25 0.3125 C 4.664062 0.3125 2.375 -2.257812 2.375 -7.40625 L 2.375 -16.8125 C 2.375 -17.5 2.585938 -18.046875 3.015625 -18.453125 C 3.453125 -18.859375 4.023438 -19.0625 4.734375 -19.0625 C 5.472656 -19.0625 6.054688 -18.859375 6.484375 -18.453125 C 6.921875 -18.046875 7.140625 -17.5 7.140625 -16.8125 L 7.140625 -7.375 C 7.140625 -6.050781 7.40625 -5.066406 7.9375 -4.421875 C 8.476562 -3.785156 9.320312 -3.46875 10.46875 -3.46875 C 11.789062 -3.46875 12.851562 -3.90625 13.65625 -4.78125 C 14.457031 -5.664062 14.859375 -6.835938 14.859375 -8.296875 L 14.859375 -16.8125 C 14.859375 -17.5 15.070312 -18.046875 15.5 -18.453125 C 15.9375 -18.859375 16.515625 -19.0625 17.234375 -19.0625 Z M 17.234375 -19.0625 "/></g></g></g><g fill="#000000" fill-opacity="1"><g transform="translate(340.368501, 64.492213)"><g><path d="M 10.578125 -19.140625 C 13.179688 -19.140625 15.113281 -18.492188 16.375 -17.203125 C 17.632812 -15.921875 18.265625 -13.96875 18.265625 -11.34375 L 18.265625 -2.03125 C 18.265625 -1.34375 18.054688 -0.800781 17.640625 -0.40625 C 17.234375 -0.0078125 16.675781 0.1875 15.96875 0.1875 C 15.300781 0.1875 14.757812 -0.015625 14.34375 -0.421875 C 13.925781 -0.828125 13.71875 -1.363281 13.71875 -2.03125 L 13.71875 -2.859375 C 13.28125 -1.867188 12.597656 -1.09375 11.671875 -0.53125 C 10.742188 0.03125 9.664062 0.3125 8.4375 0.3125 C 7.195312 0.3125 6.066406 0.0546875 5.046875 -0.453125 C 4.023438 -0.960938 3.21875 -1.660156 2.625 -2.546875 C 2.039062 -3.441406 1.75 -4.441406 1.75 -5.546875 C 1.75 -6.921875 2.097656 -8 2.796875 -8.78125 C 3.503906 -9.570312 4.644531 -10.144531 6.21875 -10.5 C 7.800781 -10.863281 9.984375 -11.046875 12.765625 -11.046875 L 13.71875 -11.046875 L 13.71875 -11.921875 C 13.71875 -13.171875 13.445312 -14.082031 12.90625 -14.65625 C 12.375 -15.226562 11.507812 -15.515625 10.3125 -15.515625 C 9.570312 -15.515625 8.820312 -15.40625 8.0625 -15.1875 C 7.300781 -14.96875 6.394531 -14.65625 5.34375 -14.25 C 4.6875 -13.914062 4.203125 -13.75 3.890625 -13.75 C 3.429688 -13.75 3.054688 -13.914062 2.765625 -14.25 C 2.472656 -14.582031 2.328125 -15.015625 2.328125 -15.546875 C 2.328125 -15.984375 2.4375 -16.359375 2.65625 -16.671875 C 2.875 -16.992188 3.238281 -17.296875 3.75 -17.578125 C 4.632812 -18.054688 5.691406 -18.4375 6.921875 -18.71875 C 8.160156 -19 9.378906 -19.140625 10.578125 -19.140625 Z M 9.390625 -3.125 C 10.671875 -3.125 11.710938 -3.550781 12.515625 -4.40625 C 13.316406 -5.257812 13.71875 -6.363281 13.71875 -7.71875 L 13.71875 -8.515625 L 13.03125 -8.515625 C 11.320312 -8.515625 9.992188 -8.4375 9.046875 -8.28125 C 8.109375 -8.132812 7.4375 -7.867188 7.03125 -7.484375 C 6.625 -7.109375 6.421875 -6.585938 6.421875 -5.921875 C 6.421875 -5.109375 6.707031 -4.4375 7.28125 -3.90625 C 7.851562 -3.382812 8.554688 -3.125 9.390625 -3.125 Z M 9.390625 -3.125 "/></g></g></g><g fill="#000000" fill-opacity="1"><g transform="translate(360.995243, 64.492213)"><g><path d="M 4.859375 0.234375 C 4.171875 0.234375 3.601562 0.0351562 3.15625 -0.359375 C 2.707031 -0.753906 2.484375 -1.320312 2.484375 -2.0625 L 2.484375 -24.875 C 2.484375 -25.613281 2.707031 -26.171875 3.15625 -26.546875 C 3.601562 -26.929688 4.171875 -27.125 4.859375 -27.125 C 5.546875 -27.125 6.117188 -26.929688 6.578125 -26.546875 C 7.035156 -26.171875 7.265625 -25.613281 7.265625 -24.875 L 7.265625 -2.0625 C 7.265625 -1.320312 7.035156 -0.753906 6.578125 -0.359375 C 6.117188 0.0351562 5.546875 0.234375 4.859375 0.234375 Z M 4.859375 0.234375 "/></g></g></g><g fill="#000000" fill-opacity="1"><g transform="translate(370.697455, 64.492213)"><g><path d="M 4.859375 0.234375 C 4.171875 0.234375 3.601562 0.0351562 3.15625 -0.359375 C 2.707031 -0.753906 2.484375 -1.320312 2.484375 -2.0625 L 2.484375 -16.8125 C 2.484375 -17.550781 2.707031 -18.109375 3.15625 -18.484375 C 3.601562 -18.867188 4.171875 -19.0625 4.859375 -19.0625 C 5.546875 -19.0625 6.117188 -18.867188 6.578125 -18.484375 C 7.035156 -18.109375 7.265625 -17.550781 7.265625 -16.8125 L 7.265625 -2.0625 C 7.265625 -1.320312 7.035156 -0.753906 6.578125 -0.359375 C 6.117188 0.0351562 5.546875 0.234375 4.859375 0.234375 Z M 4.84375 -22.46875 C 3.976562 -22.46875 3.289062 -22.703125 2.78125 -23.171875 C 2.269531 -23.640625 2.015625 -24.253906 2.015625 -25.015625 C 2.015625 -25.785156 2.269531 -26.398438 2.78125 -26.859375 C 3.289062 -27.316406 3.976562 -27.546875 4.84375 -27.546875 C 5.6875 -27.546875 6.367188 -27.316406 6.890625 -26.859375 C 7.410156 -26.398438 7.671875 -25.785156 7.671875 -25.015625 C 7.671875 -24.253906 7.414062 -23.640625 6.90625 -23.171875 C 6.394531 -22.703125 5.707031 -22.46875 4.84375 -22.46875 Z M 4.84375 -22.46875 "/></g></g></g><g fill="#000000" fill-opacity="1"><g transform="translate(380.399666, 64.492213)"><g><path d="M 12.1875 -3.328125 C 13.457031 -3.242188 14.09375 -2.671875 14.09375 -1.609375 C 14.09375 -0.992188 13.84375 -0.523438 13.34375 -0.203125 C 12.851562 0.109375 12.148438 0.238281 11.234375 0.1875 L 10.203125 0.109375 C 5.921875 -0.191406 3.78125 -2.484375 3.78125 -6.765625 L 3.78125 -15.09375 L 1.875 -15.09375 C 1.1875 -15.09375 0.65625 -15.242188 0.28125 -15.546875 C -0.0820312 -15.847656 -0.265625 -16.296875 -0.265625 -16.890625 C -0.265625 -17.472656 -0.0820312 -17.914062 0.28125 -18.21875 C 0.65625 -18.53125 1.1875 -18.6875 1.875 -18.6875 L 3.78125 -18.6875 L 3.78125 -22.203125 C 3.78125 -22.890625 3.992188 -23.4375 4.421875 -23.84375 C 4.859375 -24.25 5.445312 -24.453125 6.1875 -24.453125 C 6.90625 -24.453125 7.476562 -24.25 7.90625 -23.84375 C 8.34375 -23.4375 8.5625 -22.890625 8.5625 -22.203125 L 8.5625 -18.6875 L 11.8125 -18.6875 C 12.5 -18.6875 13.023438 -18.53125 13.390625 -18.21875 C 13.753906 -17.914062 13.9375 -17.472656 13.9375 -16.890625 C 13.9375 -16.296875 13.753906 -15.847656 13.390625 -15.546875 C 13.023438 -15.242188 12.5 -15.09375 11.8125 -15.09375 L 8.5625 -15.09375 L 8.5625 -6.421875 C 8.5625 -4.535156 9.425781 -3.53125 11.15625 -3.40625 Z M 12.1875 -3.328125 "/></g></g></g><g fill="#000000" fill-opacity="1"><g transform="translate(394.494599, 64.492213)"><g><path d="M 15.515625 -17.6875 C 15.710938 -18.144531 15.984375 -18.484375 16.328125 -18.703125 C 16.671875 -18.921875 17.046875 -19.03125 17.453125 -19.03125 C 18.046875 -19.03125 18.578125 -18.832031 19.046875 -18.4375 C 19.515625 -18.039062 19.75 -17.550781 19.75 -16.96875 C 19.75 -16.6875 19.671875 -16.390625 19.515625 -16.078125 L 9.09375 5.765625 C 8.65625 6.628906 7.976562 7.0625 7.0625 7.0625 C 6.476562 7.0625 5.960938 6.875 5.515625 6.5 C 5.078125 6.132812 4.859375 5.675781 4.859375 5.125 C 4.859375 4.84375 4.929688 4.523438 5.078125 4.171875 L 7.671875 -1.296875 L 0.578125 -16.078125 C 0.441406 -16.335938 0.375 -16.632812 0.375 -16.96875 C 0.375 -17.550781 0.625 -18.046875 1.125 -18.453125 C 1.625 -18.859375 2.191406 -19.0625 2.828125 -19.0625 C 3.253906 -19.0625 3.644531 -18.953125 4 -18.734375 C 4.363281 -18.515625 4.648438 -18.175781 4.859375 -17.71875 L 10.203125 -5.921875 Z M 15.515625 -17.6875 "/></g></g></g><g fill="#000000" fill-opacity="1"><g transform="translate(14.956163, 633.963408)"><g><path d="M 15.296875 0.359375 C 12.628906 0.359375 10.296875 -0.210938 8.296875 -1.359375 C 6.304688 -2.515625 4.773438 -4.160156 3.703125 -6.296875 C 2.640625 -8.429688 2.109375 -10.9375 2.109375 -13.8125 C 2.109375 -16.675781 2.640625 -19.171875 3.703125 -21.296875 C 4.773438 -23.421875 6.304688 -25.054688 8.296875 -26.203125 C 10.296875 -27.347656 12.628906 -27.921875 15.296875 -27.921875 C 17.015625 -27.921875 18.628906 -27.664062 20.140625 -27.15625 C 21.648438 -26.65625 22.992188 -25.921875 24.171875 -24.953125 C 24.503906 -24.691406 24.734375 -24.414062 24.859375 -24.125 C 24.992188 -23.84375 25.0625 -23.492188 25.0625 -23.078125 C 25.0625 -22.503906 24.90625 -22.019531 24.59375 -21.625 C 24.28125 -21.238281 23.90625 -21.046875 23.46875 -21.046875 C 22.945312 -21.046875 22.410156 -21.226562 21.859375 -21.59375 C 20.742188 -22.425781 19.703125 -23.003906 18.734375 -23.328125 C 17.765625 -23.648438 16.695312 -23.8125 15.53125 -23.8125 C 12.8125 -23.8125 10.753906 -22.960938 9.359375 -21.265625 C 7.972656 -19.578125 7.28125 -17.09375 7.28125 -13.8125 C 7.28125 -10.5 7.972656 -7.992188 9.359375 -6.296875 C 10.753906 -4.597656 12.8125 -3.75 15.53125 -3.75 C 16.644531 -3.75 17.675781 -3.914062 18.625 -4.25 C 19.582031 -4.59375 20.660156 -5.171875 21.859375 -5.984375 C 22.117188 -6.140625 22.378906 -6.269531 22.640625 -6.375 C 22.898438 -6.476562 23.175781 -6.53125 23.46875 -6.53125 C 23.90625 -6.53125 24.28125 -6.332031 24.59375 -5.9375 C 24.90625 -5.550781 25.0625 -5.070312 25.0625 -4.5 C 25.0625 -4.101562 24.992188 -3.753906 24.859375 -3.453125 C 24.734375 -3.160156 24.503906 -2.882812 24.171875 -2.625 C 22.992188 -1.65625 21.648438 -0.914062 20.140625 -0.40625 C 18.628906 0.101562 17.015625 0.359375 15.296875 0.359375 Z M 15.296875 0.359375 "/></g></g></g><g fill="#000000" fill-opacity="1"><g transform="translate(41.468543, 633.963408)"><g><path d="M 27.453125 -27.765625 C 28.179688 -27.765625 28.765625 -27.535156 29.203125 -27.078125 C 29.648438 -26.628906 29.875 -26.023438 29.875 -25.265625 L 29.875 -2.109375 C 29.875 -1.378906 29.664062 -0.804688 29.25 -0.390625 C 28.832031 0.0234375 28.285156 0.234375 27.609375 0.234375 C 26.929688 0.234375 26.394531 0.0234375 26 -0.390625 C 25.613281 -0.804688 25.421875 -1.378906 25.421875 -2.109375 L 25.421875 -18.21875 L 18.765625 -5.625 C 18.453125 -5.050781 18.113281 -4.628906 17.75 -4.359375 C 17.382812 -4.085938 16.957031 -3.953125 16.46875 -3.953125 C 15.96875 -3.953125 15.535156 -4.082031 15.171875 -4.34375 C 14.804688 -4.601562 14.46875 -5.03125 14.15625 -5.625 L 7.46875 -18.03125 L 7.46875 -2.109375 C 7.46875 -1.410156 7.265625 -0.84375 6.859375 -0.40625 C 6.453125 0.0195312 5.910156 0.234375 5.234375 0.234375 C 4.554688 0.234375 4.019531 0.0234375 3.625 -0.390625 C 3.238281 -0.804688 3.046875 -1.378906 3.046875 -2.109375 L 3.046875 -25.265625 C 3.046875 -26.023438 3.257812 -26.628906 3.6875 -27.078125 C 4.125 -27.535156 4.707031 -27.765625 5.4375 -27.765625 C 6.457031 -27.765625 7.253906 -27.207031 7.828125 -26.09375 L 16.5 -9.546875 L 25.140625 -26.09375 C 25.710938 -27.207031 26.484375 -27.765625 27.453125 -27.765625 Z M 27.453125 -27.765625 "/></g></g></g><g fill="#000000" fill-opacity="1"><g transform="translate(74.354836, 633.963408)"><g><path d="M 12.515625 0.359375 C 10.503906 0.359375 8.601562 0.09375 6.8125 -0.4375 C 5.03125 -0.976562 3.582031 -1.707031 2.46875 -2.625 C 1.863281 -3.0625 1.5625 -3.6875 1.5625 -4.5 C 1.5625 -5.039062 1.722656 -5.515625 2.046875 -5.921875 C 2.378906 -6.328125 2.765625 -6.53125 3.203125 -6.53125 C 3.671875 -6.53125 4.207031 -6.347656 4.8125 -5.984375 C 5.925781 -5.171875 7.097656 -4.582031 8.328125 -4.21875 C 9.554688 -3.851562 10.910156 -3.671875 12.390625 -3.671875 C 14.296875 -3.671875 15.753906 -4.003906 16.765625 -4.671875 C 17.785156 -5.335938 18.296875 -6.3125 18.296875 -7.59375 C 18.296875 -8.582031 17.820312 -9.34375 16.875 -9.875 C 15.925781 -10.40625 14.34375 -10.921875 12.125 -11.421875 C 9.832031 -11.910156 7.96875 -12.484375 6.53125 -13.140625 C 5.09375 -13.796875 4.007812 -14.628906 3.28125 -15.640625 C 2.550781 -16.660156 2.1875 -17.953125 2.1875 -19.515625 C 2.1875 -21.128906 2.640625 -22.570312 3.546875 -23.84375 C 4.460938 -25.125 5.734375 -26.125 7.359375 -26.84375 C 8.992188 -27.5625 10.828125 -27.921875 12.859375 -27.921875 C 16.585938 -27.921875 19.628906 -26.929688 21.984375 -24.953125 C 22.316406 -24.660156 22.554688 -24.378906 22.703125 -24.109375 C 22.847656 -23.835938 22.921875 -23.492188 22.921875 -23.078125 C 22.921875 -22.523438 22.753906 -22.046875 22.421875 -21.640625 C 22.097656 -21.242188 21.71875 -21.046875 21.28125 -21.046875 C 21.019531 -21.046875 20.773438 -21.082031 20.546875 -21.15625 C 20.328125 -21.238281 20.035156 -21.382812 19.671875 -21.59375 C 18.597656 -22.375 17.5625 -22.953125 16.5625 -23.328125 C 15.5625 -23.703125 14.328125 -23.890625 12.859375 -23.890625 C 11.085938 -23.890625 9.6875 -23.53125 8.65625 -22.8125 C 7.632812 -22.101562 7.125 -21.109375 7.125 -19.828125 C 7.125 -18.753906 7.578125 -17.929688 8.484375 -17.359375 C 9.398438 -16.785156 10.953125 -16.253906 13.140625 -15.765625 C 15.460938 -15.242188 17.347656 -14.660156 18.796875 -14.015625 C 20.242188 -13.378906 21.347656 -12.566406 22.109375 -11.578125 C 22.878906 -10.585938 23.265625 -9.347656 23.265625 -7.859375 C 23.265625 -6.242188 22.816406 -4.816406 21.921875 -3.578125 C 21.023438 -2.335938 19.757812 -1.367188 18.125 -0.671875 C 16.5 0.015625 14.628906 0.359375 12.515625 0.359375 Z M 12.515625 0.359375 "/></g></g></g><g fill="#000000" fill-opacity="1"><g transform="translate(595.058655, 626.013289)"><g><path d="M 12.515625 0.359375 C 10.503906 0.359375 8.601562 0.09375 6.8125 -0.4375 C 5.03125 -0.976562 3.582031 -1.707031 2.46875 -2.625 C 1.863281 -3.0625 1.5625 -3.6875 1.5625 -4.5 C 1.5625 -5.039062 1.722656 -5.515625 2.046875 -5.921875 C 2.378906 -6.328125 2.765625 -6.53125 3.203125 -6.53125 C 3.671875 -6.53125 4.207031 -6.347656 4.8125 -5.984375 C 5.925781 -5.171875 7.097656 -4.582031 8.328125 -4.21875 C 9.554688 -3.851562 10.910156 -3.671875 12.390625 -3.671875 C 14.296875 -3.671875 15.753906 -4.003906 16.765625 -4.671875 C 17.785156 -5.335938 18.296875 -6.3125 18.296875 -7.59375 C 18.296875 -8.582031 17.820312 -9.34375 16.875 -9.875 C 15.925781 -10.40625 14.34375 -10.921875 12.125 -11.421875 C 9.832031 -11.910156 7.96875 -12.484375 6.53125 -13.140625 C 5.09375 -13.796875 4.007812 -14.628906 3.28125 -15.640625 C 2.550781 -16.660156 2.1875 -17.953125 2.1875 -19.515625 C 2.1875 -21.128906 2.640625 -22.570312 3.546875 -23.84375 C 4.460938 -25.125 5.734375 -26.125 7.359375 -26.84375 C 8.992188 -27.5625 10.828125 -27.921875 12.859375 -27.921875 C 16.585938 -27.921875 19.628906 -26.929688 21.984375 -24.953125 C 22.316406 -24.660156 22.554688 -24.378906 22.703125 -24.109375 C 22.847656 -23.835938 22.921875 -23.492188 22.921875 -23.078125 C 22.921875 -22.523438 22.753906 -22.046875 22.421875 -21.640625 C 22.097656 -21.242188 21.71875 -21.046875 21.28125 -21.046875 C 21.019531 -21.046875 20.773438 -21.082031 20.546875 -21.15625 C 20.328125 -21.238281 20.035156 -21.382812 19.671875 -21.59375 C 18.597656 -22.375 17.5625 -22.953125 16.5625 -23.328125 C 15.5625 -23.703125 14.328125 -23.890625 12.859375 -23.890625 C 11.085938 -23.890625 9.6875 -23.53125 8.65625 -22.8125 C 7.632812 -22.101562 7.125 -21.109375 7.125 -19.828125 C 7.125 -18.753906 7.578125 -17.929688 8.484375 -17.359375 C 9.398438 -16.785156 10.953125 -16.253906 13.140625 -15.765625 C 15.460938 -15.242188 17.347656 -14.660156 18.796875 -14.015625 C 20.242188 -13.378906 21.347656 -12.566406 22.109375 -11.578125 C 22.878906 -10.585938 23.265625 -9.347656 23.265625 -7.859375 C 23.265625 -6.242188 22.816406 -4.816406 21.921875 -3.578125 C 21.023438 -2.335938 19.757812 -1.367188 18.125 -0.671875 C 16.5 0.015625 14.628906 0.359375 12.515625 0.359375 Z M 12.515625 0.359375 "/></g></g></g><g fill="#000000" fill-opacity="1"><g transform="translate(620.006885, 626.013289)"><g><path d="M 17.671875 -5.234375 C 18.117188 -5.234375 18.476562 -5.0625 18.75 -4.71875 C 19.019531 -4.382812 19.15625 -3.929688 19.15625 -3.359375 C 19.15625 -2.554688 18.675781 -1.878906 17.71875 -1.328125 C 16.832031 -0.835938 15.828125 -0.441406 14.703125 -0.140625 C 13.585938 0.160156 12.519531 0.3125 11.5 0.3125 C 8.425781 0.3125 5.988281 -0.570312 4.1875 -2.34375 C 2.382812 -4.113281 1.484375 -6.539062 1.484375 -9.625 C 1.484375 -11.570312 1.875 -13.300781 2.65625 -14.8125 C 3.4375 -16.332031 4.535156 -17.507812 5.953125 -18.34375 C 7.378906 -19.175781 8.992188 -19.59375 10.796875 -19.59375 C 12.515625 -19.59375 14.007812 -19.210938 15.28125 -18.453125 C 16.5625 -17.703125 17.550781 -16.632812 18.25 -15.25 C 18.957031 -13.875 19.3125 -12.242188 19.3125 -10.359375 C 19.3125 -9.242188 18.816406 -8.6875 17.828125 -8.6875 L 6.296875 -8.6875 C 6.453125 -6.882812 6.957031 -5.554688 7.8125 -4.703125 C 8.675781 -3.859375 9.929688 -3.4375 11.578125 -3.4375 C 12.410156 -3.4375 13.144531 -3.539062 13.78125 -3.75 C 14.425781 -3.957031 15.148438 -4.242188 15.953125 -4.609375 C 16.734375 -5.023438 17.304688 -5.234375 17.671875 -5.234375 Z M 10.90625 -16.15625 C 9.582031 -16.15625 8.519531 -15.738281 7.71875 -14.90625 C 6.925781 -14.070312 6.453125 -12.867188 6.296875 -11.296875 L 15.140625 -11.296875 C 15.085938 -12.890625 14.691406 -14.097656 13.953125 -14.921875 C 13.222656 -15.742188 12.207031 -16.15625 10.90625 -16.15625 Z M 10.90625 -16.15625 "/></g></g></g><g fill="#000000" fill-opacity="1"><g transform="translate(640.770999, 626.013289)"><g><path d="M 11.03125 0.3125 C 9.125 0.3125 7.445312 -0.0859375 6 -0.890625 C 4.550781 -1.703125 3.4375 -2.851562 2.65625 -4.34375 C 1.875 -5.832031 1.484375 -7.566406 1.484375 -9.546875 C 1.484375 -11.523438 1.894531 -13.273438 2.71875 -14.796875 C 3.539062 -16.328125 4.691406 -17.507812 6.171875 -18.34375 C 7.660156 -19.175781 9.367188 -19.59375 11.296875 -19.59375 C 12.316406 -19.59375 13.34375 -19.445312 14.375 -19.15625 C 15.40625 -18.875 16.3125 -18.484375 17.09375 -17.984375 C 17.925781 -17.441406 18.34375 -16.753906 18.34375 -15.921875 C 18.34375 -15.347656 18.203125 -14.882812 17.921875 -14.53125 C 17.648438 -14.175781 17.296875 -14 16.859375 -14 C 16.566406 -14 16.265625 -14.0625 15.953125 -14.1875 C 15.640625 -14.320312 15.328125 -14.484375 15.015625 -14.671875 C 14.441406 -15.003906 13.894531 -15.269531 13.375 -15.46875 C 12.851562 -15.664062 12.253906 -15.765625 11.578125 -15.765625 C 9.960938 -15.765625 8.71875 -15.234375 7.84375 -14.171875 C 6.96875 -13.117188 6.53125 -11.601562 6.53125 -9.625 C 6.53125 -7.664062 6.96875 -6.15625 7.84375 -5.09375 C 8.71875 -4.039062 9.960938 -3.515625 11.578125 -3.515625 C 12.222656 -3.515625 12.800781 -3.613281 13.3125 -3.8125 C 13.820312 -4.007812 14.390625 -4.273438 15.015625 -4.609375 C 15.410156 -4.847656 15.75 -5.023438 16.03125 -5.140625 C 16.320312 -5.253906 16.609375 -5.3125 16.890625 -5.3125 C 17.304688 -5.3125 17.65625 -5.128906 17.9375 -4.765625 C 18.226562 -4.398438 18.375 -3.945312 18.375 -3.40625 C 18.375 -2.957031 18.273438 -2.570312 18.078125 -2.25 C 17.890625 -1.925781 17.570312 -1.632812 17.125 -1.375 C 16.320312 -0.851562 15.382812 -0.441406 14.3125 -0.140625 C 13.238281 0.160156 12.144531 0.3125 11.03125 0.3125 Z M 11.03125 0.3125 "/></g></g></g><g fill="#000000" fill-opacity="1"><g transform="translate(659.853653, 626.013289)"><g><path d="M 17.640625 -19.515625 C 18.390625 -19.515625 18.988281 -19.304688 19.4375 -18.890625 C 19.882812 -18.472656 20.109375 -17.910156 20.109375 -17.203125 L 20.109375 -2.03125 C 20.109375 -1.351562 19.878906 -0.804688 19.421875 -0.390625 C 18.960938 0.0234375 18.367188 0.234375 17.640625 0.234375 C 16.929688 0.234375 16.367188 0.0390625 15.953125 -0.34375 C 15.535156 -0.738281 15.328125 -1.273438 15.328125 -1.953125 L 15.328125 -2.9375 C 14.734375 -1.894531 13.925781 -1.09375 12.90625 -0.53125 C 11.882812 0.03125 10.738281 0.3125 9.46875 0.3125 C 4.769531 0.3125 2.421875 -2.320312 2.421875 -7.59375 L 2.421875 -17.203125 C 2.421875 -17.910156 2.640625 -18.472656 3.078125 -18.890625 C 3.523438 -19.304688 4.113281 -19.515625 4.84375 -19.515625 C 5.601562 -19.515625 6.203125 -19.304688 6.640625 -18.890625 C 7.085938 -18.472656 7.3125 -17.910156 7.3125 -17.203125 L 7.3125 -7.546875 C 7.3125 -6.191406 7.582031 -5.1875 8.125 -4.53125 C 8.675781 -3.882812 9.539062 -3.5625 10.71875 -3.5625 C 12.070312 -3.5625 13.160156 -4.007812 13.984375 -4.90625 C 14.804688 -5.800781 15.21875 -6.992188 15.21875 -8.484375 L 15.21875 -17.203125 C 15.21875 -17.910156 15.4375 -18.472656 15.875 -18.890625 C 16.320312 -19.304688 16.910156 -19.515625 17.640625 -19.515625 Z M 17.640625 -19.515625 "/></g></g></g><g fill="#000000" fill-opacity="1"><g transform="translate(682.494753, 626.013289)"><g><path d="M 13.21875 -19.515625 C 13.894531 -19.566406 14.425781 -19.421875 14.8125 -19.078125 C 15.207031 -18.742188 15.40625 -18.238281 15.40625 -17.5625 C 15.40625 -16.851562 15.234375 -16.328125 14.890625 -15.984375 C 14.554688 -15.648438 13.945312 -15.429688 13.0625 -15.328125 L 11.890625 -15.21875 C 10.347656 -15.0625 9.21875 -14.535156 8.5 -13.640625 C 7.789062 -12.753906 7.4375 -11.648438 7.4375 -10.328125 L 7.4375 -2.109375 C 7.4375 -1.359375 7.195312 -0.78125 6.71875 -0.375 C 6.25 0.03125 5.664062 0.234375 4.96875 0.234375 C 4.257812 0.234375 3.675781 0.03125 3.21875 -0.375 C 2.769531 -0.78125 2.546875 -1.359375 2.546875 -2.109375 L 2.546875 -17.25 C 2.546875 -17.976562 2.769531 -18.535156 3.21875 -18.921875 C 3.675781 -19.316406 4.242188 -19.515625 4.921875 -19.515625 C 5.597656 -19.515625 6.144531 -19.320312 6.5625 -18.9375 C 6.988281 -18.5625 7.203125 -18.023438 7.203125 -17.328125 L 7.203125 -15.765625 C 7.691406 -16.910156 8.425781 -17.796875 9.40625 -18.421875 C 10.382812 -19.046875 11.472656 -19.394531 12.671875 -19.46875 Z M 13.21875 -19.515625 "/></g></g></g><g fill="#000000" fill-opacity="1"><g transform="translate(697.471505, 626.013289)"><g><path d="M 4.96875 0.234375 C 4.257812 0.234375 3.675781 0.03125 3.21875 -0.375 C 2.769531 -0.78125 2.546875 -1.359375 2.546875 -2.109375 L 2.546875 -17.203125 C 2.546875 -17.960938 2.769531 -18.535156 3.21875 -18.921875 C 3.675781 -19.316406 4.257812 -19.515625 4.96875 -19.515625 C 5.664062 -19.515625 6.25 -19.316406 6.71875 -18.921875 C 7.195312 -18.535156 7.4375 -17.960938 7.4375 -17.203125 L 7.4375 -2.109375 C 7.4375 -1.359375 7.195312 -0.78125 6.71875 -0.375 C 6.25 0.03125 5.664062 0.234375 4.96875 0.234375 Z M 4.96875 -23 C 4.070312 -23 3.363281 -23.238281 2.84375 -23.71875 C 2.320312 -24.195312 2.0625 -24.828125 2.0625 -25.609375 C 2.0625 -26.398438 2.320312 -27.03125 2.84375 -27.5 C 3.363281 -27.96875 4.070312 -28.203125 4.96875 -28.203125 C 5.820312 -28.203125 6.515625 -27.96875 7.046875 -27.5 C 7.585938 -27.03125 7.859375 -26.398438 7.859375 -25.609375 C 7.859375 -24.828125 7.597656 -24.195312 7.078125 -23.71875 C 6.554688 -23.238281 5.851562 -23 4.96875 -23 Z M 4.96875 -23 "/></g></g></g><g fill="#000000" fill-opacity="1"><g transform="translate(707.403875, 626.013289)"><g><path d="M 12.46875 -3.40625 C 13.78125 -3.320312 14.4375 -2.734375 14.4375 -1.640625 C 14.4375 -1.015625 14.179688 -0.535156 13.671875 -0.203125 C 13.160156 0.117188 12.4375 0.253906 11.5 0.203125 L 10.4375 0.125 C 6.0625 -0.195312 3.875 -2.546875 3.875 -6.921875 L 3.875 -15.453125 L 1.921875 -15.453125 C 1.210938 -15.453125 0.664062 -15.609375 0.28125 -15.921875 C -0.09375 -16.234375 -0.28125 -16.6875 -0.28125 -17.28125 C -0.28125 -17.882812 -0.09375 -18.34375 0.28125 -18.65625 C 0.664062 -18.96875 1.210938 -19.125 1.921875 -19.125 L 3.875 -19.125 L 3.875 -22.71875 C 3.875 -23.425781 4.09375 -23.988281 4.53125 -24.40625 C 4.976562 -24.820312 5.578125 -25.03125 6.328125 -25.03125 C 7.066406 -25.03125 7.65625 -24.820312 8.09375 -24.40625 C 8.539062 -23.988281 8.765625 -23.425781 8.765625 -22.71875 L 8.765625 -19.125 L 12.078125 -19.125 C 12.785156 -19.125 13.328125 -18.96875 13.703125 -18.65625 C 14.085938 -18.34375 14.28125 -17.882812 14.28125 -17.28125 C 14.28125 -16.6875 14.085938 -16.234375 13.703125 -15.921875 C 13.328125 -15.609375 12.785156 -15.453125 12.078125 -15.453125 L 8.765625 -15.453125 L 8.765625 -6.578125 C 8.765625 -4.640625 9.648438 -3.609375 11.421875 -3.484375 Z M 12.46875 -3.40625 "/></g></g></g><g fill="#000000" fill-opacity="1"><g transform="translate(721.833173, 626.013289)"><g><path d="M 15.875 -18.109375 C 16.082031 -18.578125 16.363281 -18.921875 16.71875 -19.140625 C 17.070312 -19.359375 17.457031 -19.46875 17.875 -19.46875 C 18.46875 -19.46875 19.003906 -19.265625 19.484375 -18.859375 C 19.972656 -18.460938 20.21875 -17.960938 20.21875 -17.359375 C 20.21875 -17.078125 20.140625 -16.78125 19.984375 -16.46875 L 9.3125 5.90625 C 8.863281 6.789062 8.171875 7.234375 7.234375 7.234375 C 6.628906 7.234375 6.097656 7.039062 5.640625 6.65625 C 5.191406 6.28125 4.96875 5.804688 4.96875 5.234375 C 4.96875 4.953125 5.046875 4.628906 5.203125 4.265625 L 7.859375 -1.328125 L 0.59375 -16.46875 C 0.457031 -16.726562 0.390625 -17.023438 0.390625 -17.359375 C 0.390625 -17.960938 0.644531 -18.472656 1.15625 -18.890625 C 1.664062 -19.304688 2.242188 -19.515625 2.890625 -19.515625 C 3.335938 -19.515625 3.742188 -19.398438 4.109375 -19.171875 C 4.472656 -18.953125 4.757812 -18.609375 4.96875 -18.140625 L 10.4375 -6.0625 Z M 15.875 -18.109375 "/></g></g></g></svg>